<svg width="46" height="46" viewBox="0 0 46 46" fill="none" xmlns="http://www.w3.org/2000/svg">
<g clip-path="url(#clip0_3_143)">
<path d="M40.825 0H5.175C2.31693 0 0 2.31693 0 5.175V40.825C0 43.6831 2.31693 46 5.175 46H40.825C43.6831 46 46 43.6831 46 40.825V5.175C46 2.31693 43.6831 0 40.825 0Z" fill="#575050"/>
<g clip-path="url(#clip1_3_143)">
<path d="M28.2014 9H28.3935C28.5476 10.9041 27.8208 12.3268 26.9376 13.3571C26.0709 14.3803 24.8841 15.3727 22.9646 15.2221C22.8365 13.3453 23.5645 12.0281 24.4466 11.0001C25.2647 10.0422 26.7645 9.1897 28.2014 9Z" fill="white"/>
<path d="M34.0121 28.8187V28.872C33.4727 30.5058 32.7032 31.906 31.7642 33.2054C30.907 34.3851 29.8565 35.9727 27.9809 35.9727C26.3602 35.9727 25.2836 34.9305 23.6226 34.9021C21.8655 34.8736 20.8992 35.7735 19.2927 35.9999H18.745C17.5653 35.8292 16.6132 34.8949 15.9196 34.0532C13.8745 31.5657 12.294 28.3527 12 24.241V23.0329C12.1245 20.0902 13.5543 17.6976 15.4549 16.5381C16.4579 15.9216 17.8368 15.3963 19.3722 15.6311C20.0302 15.733 20.7024 15.9583 21.2917 16.1812C21.8501 16.3958 22.5484 16.7764 23.21 16.7562C23.6581 16.7432 24.1039 16.5096 24.5557 16.3448C25.8788 15.867 27.1759 15.3193 28.8855 15.5765C30.9402 15.8872 32.3985 16.8001 33.2996 18.2086C31.5615 19.3148 30.1873 20.9818 30.4221 23.8284C30.6307 26.4142 32.1341 27.9271 34.0121 28.8187Z" fill="white"/>
</g>
</g>
<defs>
<clipPath id="clip0_3_143">
<rect width="46" height="46" fill="white"/>
</clipPath>
<clipPath id="clip1_3_143">
<rect width="22.0121" height="27" fill="white" transform="translate(12 9)"/>
</clipPath>
</defs>
</svg>
