<svg width="75" height="25" viewBox="0 0 75 25" fill="none" xmlns="http://www.w3.org/2000/svg">
<g clip-path="url(#clip0_1_4573)">
<path d="M5.95917 7.47898e-05C5.72998 7.47898e-05 5.50354 7.47898e-05 5.27496 0.00131817C5.08362 0.0025709 4.89381 0.00619821 4.70059 0.00925524C4.28092 0.0141914 3.86224 0.0511188 3.44818 0.119701C3.0347 0.189779 2.63417 0.321895 2.26014 0.511572C1.88656 0.702856 1.54522 0.95142 1.24849 1.24823C0.950195 1.54421 0.701547 1.88632 0.512095 2.26141C0.322129 2.63575 0.190406 3.0369 0.121468 3.45098C0.0518761 3.86455 0.0144344 4.28288 0.00947026 4.70222C0.00367405 4.89384 0.00305703 5.08611 0 5.27776V19.7241C0.00305703 19.9182 0.0036647 20.1062 0.00947026 20.3003C0.0144344 20.7197 0.0518854 21.138 0.121468 21.5515C0.190209 21.9658 0.321942 22.3672 0.512095 22.7417C0.701454 23.1156 0.950139 23.4563 1.24849 23.7506C1.5441 24.0488 1.88566 24.2975 2.26014 24.4873C2.63417 24.6775 3.03465 24.8104 3.44818 24.8816C3.86232 24.9496 4.28097 24.9865 4.70061 24.9921C4.8938 24.9963 5.08361 24.9987 5.27499 24.9987C5.50353 25 5.72999 25 5.95917 25H68.834C69.0587 25 69.2869 25 69.5115 24.9987C69.702 24.9987 69.8973 24.9963 70.0877 24.9921C70.5066 24.9868 70.9244 24.9499 71.3377 24.8816C71.7526 24.8099 72.1545 24.677 72.5303 24.4873C72.9045 24.2974 73.2457 24.0487 73.5411 23.7506C73.8387 23.4551 74.0879 23.1147 74.2796 22.7417C74.4683 22.3669 74.5988 21.9656 74.6665 21.5515C74.7362 21.1379 74.775 20.7197 74.7825 20.3003C74.785 20.1062 74.785 19.9182 74.785 19.7241C74.7898 19.4971 74.7898 19.2713 74.7898 19.0405V5.96013C74.7898 5.73125 74.7898 5.5042 74.785 5.27777C74.785 5.08612 74.785 4.89385 74.7825 4.7022C74.775 4.28282 74.7362 3.86459 74.6665 3.45096C74.5986 3.03711 74.4681 2.636 74.2796 2.26139C73.8938 1.50957 73.282 0.897581 72.5304 0.511525C72.1545 0.322307 71.7525 0.190228 71.3377 0.119654C70.9245 0.0507636 70.5066 0.0138361 70.0877 0.00918045C69.8973 0.00613277 69.702 0.00246806 69.5115 0.00125273C69.2869 1.08834e-10 69.0587 0 68.834 0" fill="#A6A6A6"/>
<path d="M69.5085 0.546967L70.0791 0.554904C70.4683 0.559531 70.8566 0.593495 71.2406 0.656524C71.6038 0.718207 71.9558 0.833608 72.285 0.998931C72.9336 1.33321 73.4614 1.86206 73.7943 2.51139C73.9571 2.83608 74.0699 3.18353 74.1288 3.54196C74.1937 3.93196 74.23 4.32618 74.2374 4.72146C74.2393 4.89846 74.2393 5.08859 74.2393 5.2778C74.2442 5.51217 74.2442 5.73525 74.2442 5.96016V19.0405C74.2442 19.2676 74.2442 19.4892 74.2393 19.7125C74.2393 19.9158 74.2393 20.102 74.2368 20.2936C74.2295 20.6818 74.1938 21.069 74.13 21.452C74.0717 21.8152 73.9579 22.1672 73.7925 22.4958C73.6278 22.816 73.4136 23.1083 73.1578 23.3618C72.9024 23.6205 72.6071 23.8362 72.2831 24.0009C71.9549 24.1672 71.6034 24.283 71.2406 24.3445C70.8543 24.4076 70.4638 24.4417 70.0724 24.4465C69.8893 24.4507 69.6976 24.4531 69.5115 24.4531L68.834 24.4544L5.278 24.4531C5.08757 24.4531 4.90175 24.4507 4.71282 24.4465C4.32143 24.4414 3.93097 24.4073 3.54461 24.3445C3.18436 24.2825 2.83536 24.1671 2.50916 24.0021C2.18593 23.8385 1.89113 23.6239 1.63603 23.3667C1.37725 23.1125 1.1618 22.8177 0.998214 22.4939C0.832835 22.168 0.718379 21.8187 0.658837 21.4582C0.594536 21.0707 0.55975 20.679 0.554776 20.2863C0.550812 20.1545 0.545624 19.7156 0.545624 19.7156V5.27779C0.545624 5.27779 0.551158 4.84566 0.554814 4.71871C0.559581 4.32663 0.594162 3.93549 0.658267 3.54867C0.717921 3.18711 0.832461 2.83681 0.997925 2.50985C1.1609 2.18629 1.37515 1.89123 1.63239 1.6361C1.88933 1.37858 2.18508 1.16295 2.50885 0.997089C2.8343 0.832636 3.18265 0.718039 3.54217 0.657132C3.9298 0.593738 4.32162 0.559466 4.71436 0.554595L5.27831 0.546967" fill="black"/>
<path d="M67.0367 12.688C67.0503 11.6277 67.6062 10.6483 68.5095 10.0929C67.9371 9.27537 67.0126 8.77561 66.0151 8.74439C64.9656 8.63423 63.9481 9.37241 63.4133 9.37241C62.8681 9.37241 62.0447 8.75533 61.158 8.77358C59.9913 8.81127 58.93 9.45852 58.3624 10.4785C57.1536 12.5712 58.0553 15.6469 59.2131 17.3385C59.7924 18.1669 60.4695 19.0921 61.3554 19.0593C62.2223 19.0234 62.5461 18.5065 63.5925 18.5065C64.6292 18.5065 64.933 19.0593 65.8369 19.0385C66.7671 19.0234 67.3532 18.2064 67.9122 17.3703C68.3284 16.78 68.6487 16.1277 68.8612 15.4374C67.7564 14.9701 67.038 13.8876 67.0367 12.688Z" fill="white"/>
<path d="M65.3294 7.63185C65.8366 7.02297 66.0865 6.24036 66.026 5.45023C65.2511 5.53162 64.5353 5.90197 64.0213 6.48748C63.5137 7.06517 63.2565 7.82094 63.3065 8.58834C64.0917 8.59643 64.8373 8.2439 65.3294 7.63185Z" fill="white"/>
<path d="M10.7488 16.9623H7.79043L7.07999 19.0601H5.82693L8.62905 11.2988H9.93092L12.733 19.0601H11.4586L10.7488 16.9623ZM8.09682 15.9943H10.4418L9.28581 12.5897H9.25347L8.09682 15.9943Z" fill="white"/>
<path d="M18.7847 16.2311C18.7847 17.9895 17.8435 19.1193 16.4232 19.1193C15.6891 19.1577 14.9976 18.7731 14.6428 18.1293H14.6159V20.932H13.4545V13.4015H14.5787V14.3427H14.6001C14.9706 13.7028 15.6628 13.3185 16.4018 13.3423C17.838 13.3423 18.7847 14.4775 18.7847 16.2311ZM17.5908 16.2311C17.5908 15.0855 16.9988 14.3323 16.0955 14.3323C15.208 14.3323 14.6111 15.1013 14.6111 16.2311C14.6111 17.3712 15.208 18.1348 16.0955 18.1348C16.9988 18.1348 17.5908 17.3871 17.5908 16.2311Z" fill="white"/>
<path d="M25.0126 16.2311C25.0126 17.9895 24.0715 19.1193 22.6512 19.1193C21.9171 19.1577 21.2256 18.7731 20.8708 18.1293H20.8439V20.932H19.6824V13.4015H20.8067V14.3427H20.8281C21.1986 13.7028 21.8908 13.3185 22.6298 13.3423C24.066 13.3423 25.0126 14.4775 25.0126 16.2311ZM23.8188 16.2311C23.8188 15.0855 23.2268 14.3323 22.3234 14.3323C21.436 14.3323 20.8391 15.1013 20.8391 16.2311C20.8391 17.3712 21.436 18.1348 22.3234 18.1348C23.2268 18.1348 23.8188 17.3871 23.8188 16.2311Z" fill="white"/>
<path d="M29.1289 16.8976C29.2149 17.6673 29.9626 18.1726 30.9843 18.1726C31.9633 18.1726 32.6677 17.6673 32.6677 16.9733C32.6677 16.3709 32.2429 16.0102 31.237 15.763L30.2312 15.5207C28.806 15.1764 28.1444 14.5099 28.1444 13.4284C28.1444 12.0893 29.3114 11.1695 30.9685 11.1695C32.6085 11.1695 33.7327 12.0893 33.7706 13.4284H32.5981C32.5279 12.6539 31.8876 12.1863 30.952 12.1863C30.0163 12.1863 29.376 12.6594 29.376 13.3478C29.376 13.8965 29.785 14.2194 30.7853 14.4666L31.6404 14.6765C33.2328 15.0531 33.8945 15.6928 33.8945 16.828C33.8945 18.28 32.7378 19.1895 30.8982 19.1895C29.1771 19.1895 28.015 18.3014 27.9399 16.8976L29.1289 16.8976Z" fill="white"/>
<path d="M36.4011 12.0624V13.4016H37.4772V14.3214H36.4011V17.4408C36.4011 17.9255 36.6166 18.1513 37.0896 18.1513C37.2173 18.1491 37.3449 18.1401 37.4717 18.1244V19.0387C37.259 19.0785 37.0429 19.0964 36.8265 19.0924C35.6809 19.0924 35.2341 18.6621 35.2341 17.5647V14.3213H34.4114V13.4016H35.2342V12.0624L36.4011 12.0624Z" fill="white"/>
<path d="M38.1004 16.2311C38.1004 14.4507 39.149 13.332 40.7841 13.332C42.4247 13.332 43.4684 14.4507 43.4684 16.2311C43.4684 18.0164 42.4302 19.1303 40.7841 19.1303C39.1386 19.1303 38.1004 18.0164 38.1004 16.2311ZM42.2849 16.2311C42.2849 15.0098 41.7252 14.289 40.7841 14.289C39.8429 14.289 39.2838 15.0153 39.2838 16.2311C39.2838 17.4573 39.8429 18.1727 40.7841 18.1727C41.7252 18.1727 42.2849 17.4573 42.2849 16.2311Z" fill="white"/>
<path d="M44.426 13.4015H45.5338V14.3646H45.5607C45.7152 13.7446 46.2833 13.3179 46.9218 13.3423C47.0556 13.3418 47.1891 13.3564 47.3197 13.3856V14.4721C47.1507 14.4204 46.9745 14.3967 46.7978 14.4019C46.152 14.3757 45.6072 14.878 45.581 15.5239C45.5785 15.5839 45.5807 15.644 45.5875 15.7038V19.0601H44.426L44.426 13.4015Z" fill="white"/>
<path d="M52.6749 17.3981C52.5187 18.4253 51.5183 19.1302 50.2384 19.1302C48.5923 19.1302 47.5706 18.0273 47.5706 16.2579C47.5706 14.483 48.5978 13.3319 50.1896 13.3319C51.7551 13.3319 52.7396 14.4073 52.7396 16.123V16.521H48.743V16.5912C48.6712 17.4019 49.2703 18.1174 50.081 18.1892C50.1423 18.1946 50.2038 18.1962 50.2652 18.1939C50.8289 18.2468 51.3603 17.9231 51.572 17.3981L52.6749 17.3981ZM48.7485 15.7092H51.5775C51.6193 14.9588 51.0449 14.3166 50.2945 14.2749C50.2595 14.2729 50.2246 14.2723 50.1896 14.2731C49.3984 14.2684 48.7533 14.9059 48.7486 15.697C48.7485 15.7011 48.7485 15.7052 48.7485 15.7092Z" fill="white"/>
<path d="M33.6211 10.0522H33.2128C32.4178 10.0522 31.5792 9.88896 31.5792 8.7888C31.6325 8.29412 31.7458 7.80775 31.9167 7.34044L32.4449 7.48204L32.3686 7.7271C32.2556 8.07177 32.1808 8.42779 32.1455 8.78879C32.1455 9.54562 32.8697 9.54562 33.3598 9.54562H33.7028C33.9479 9.54562 34.2854 9.44766 34.2854 9.1373V6.98643H34.8683V8.59836C34.9938 8.65164 35.1293 8.67754 35.2656 8.67435H35.4671V9.17545H35.2656C35.131 9.17451 34.9972 9.15438 34.8683 9.11564V9.19188C34.8683 9.47482 34.6504 10.0522 33.6211 10.0522ZM33.289 6.39837C33.0952 6.38807 32.9463 6.22255 32.9566 6.02868C32.9669 5.8348 33.1325 5.68598 33.3263 5.69627C33.5118 5.70613 33.6577 5.8586 33.6592 6.04436C33.6644 6.23509 33.514 6.39392 33.3233 6.39913C33.3119 6.39944 33.3005 6.39919 33.289 6.39837Z" fill="white"/>
<path d="M36.1247 8.67437C36.0576 8.43525 36.0264 8.1875 36.032 7.9392C35.965 7.29976 36.4292 6.72712 37.0686 6.6602C37.1168 6.65516 37.1652 6.65313 37.2136 6.65411C37.9869 6.65411 38.2866 7.28582 38.2866 8.03747C38.2866 8.59289 38.0903 9.34422 37.3335 9.34422C37.084 9.32013 36.8387 9.2634 36.6039 9.17547H35.3676V8.67437H36.1247ZM36.7128 8.69634C36.8978 8.77462 37.0948 8.82065 37.2954 8.83245C37.6329 8.83245 37.7257 8.40214 37.7257 8.02099C37.7257 7.6563 37.6222 7.13354 37.1809 7.13354C36.7836 7.13354 36.6094 7.50372 36.6094 7.97216C36.602 8.2177 36.6369 8.4627 36.7128 8.69634Z" fill="white"/>
<path d="M42.1297 10.0522H41.7213C40.9261 10.0522 40.0874 9.88898 40.0874 8.78882C40.1409 8.29415 40.2542 7.80781 40.4249 7.34046L40.9535 7.48206L40.8772 7.72711C40.7641 8.07176 40.6892 8.42779 40.6538 8.7888C40.6538 9.54564 41.3783 9.54564 41.8684 9.54564H42.2114C42.4562 9.54564 42.7937 9.44767 42.7937 9.13731V5.50513H43.3766V8.59838C43.5021 8.65162 43.6376 8.67752 43.7739 8.67436H43.9753V9.17547H43.7739C43.6393 9.17449 43.5055 9.15436 43.3766 9.11565V9.1919C43.3766 9.47484 43.1587 10.0522 42.1297 10.0522Z" fill="white"/>
<path d="M45.9346 6.68158V8.21172C45.9346 8.85961 45.5476 9.17547 44.7798 9.17547H43.8759V8.67437H44.7585C45.2211 8.67437 45.3462 8.47295 45.3462 8.12994V6.68158H45.9346ZM44.4752 10.3952C44.2813 10.3848 44.1327 10.2191 44.1431 10.0253C44.1536 9.83139 44.3192 9.6827 44.5131 9.69316C44.6985 9.70316 44.8441 9.85559 44.8457 10.0413C44.8509 10.232 44.7005 10.3908 44.5098 10.396C44.4983 10.3964 44.4867 10.3961 44.4752 10.3952ZM45.3901 10.3952C45.1962 10.3851 45.0473 10.2197 45.0574 10.0258C45.0675 9.83196 45.2329 9.683 45.4268 9.69313C45.6124 9.70284 45.7584 9.85537 45.76 10.0412C45.7652 10.232 45.6148 10.3908 45.4241 10.396C45.4128 10.3963 45.4014 10.3961 45.3901 10.3952Z" fill="white"/>
<path d="M46.3692 9.99243C46.4522 10.0026 46.5358 10.008 46.6194 10.0086C47.0992 10.0086 47.3384 9.73089 47.3384 9.16998V6.98096H47.9268V8.67437H48.4657V9.17547H47.9213C47.9278 9.54672 47.7934 9.90664 47.5453 10.1829C47.2806 10.4043 46.9428 10.5189 46.5981 10.5042C46.4741 10.5022 46.3504 10.4932 46.2276 10.477L46.3692 9.99243ZM47.6051 6.4527C47.4113 6.44224 47.2626 6.2766 47.273 6.08272C47.2835 5.88884 47.4491 5.74015 47.643 5.75061C47.8284 5.76061 47.974 5.91305 47.9756 6.0987C47.9809 6.28932 47.8307 6.44818 47.6401 6.4535C47.6284 6.45383 47.6168 6.45356 47.6051 6.4527Z" fill="white"/>
<path d="M50.3981 9.17547C50.1633 9.16819 49.9337 9.10465 49.7285 8.99022C49.4466 9.14114 49.1265 9.20556 48.8081 9.17547H48.3669V8.67437H48.8411C49.2873 8.67437 49.3745 8.60357 49.3745 8.27703V6.68158H49.9574V8.5764C50.0948 8.64247 50.2456 8.676 50.3981 8.67437H50.7631V9.17547H50.3981ZM49.6412 6.13684C49.4474 6.12638 49.2987 5.96074 49.3091 5.76686C49.3196 5.57298 49.4852 5.42429 49.6791 5.43475C49.8645 5.44476 50.0102 5.59719 50.0117 5.78284C50.0171 5.97347 49.8668 6.13232 49.6762 6.13765C49.6645 6.13797 49.6529 6.1377 49.6412 6.13684Z" fill="white"/>
<path d="M52.1565 6.68158V8.21173C52.1565 8.85961 51.7701 9.17548 51.0023 9.17548H50.6642V8.67438H50.9804C51.443 8.67438 51.5681 8.47296 51.5681 8.12995V6.68158H52.1565ZM51.2904 6.13684C51.0965 6.12638 50.9478 5.96074 50.9583 5.76686C50.9688 5.57298 51.1344 5.42429 51.3283 5.43475C51.5137 5.44476 51.6593 5.59719 51.6609 5.78284C51.6662 5.97347 51.516 6.13232 51.3254 6.13765C51.3137 6.13797 51.302 6.1377 51.2904 6.13684ZM52.2053 6.13684C52.0114 6.12638 51.8627 5.96074 51.8732 5.76686C51.8837 5.57298 52.0493 5.42429 52.2432 5.43475C52.4286 5.44476 52.5742 5.59719 52.5758 5.78284C52.5811 5.97347 52.4309 6.13232 52.2403 6.13765C52.2286 6.13797 52.217 6.1377 52.2053 6.13684Z" fill="white"/>
</g>
<defs>
<clipPath id="clip0_1_4573">
<rect width="74.7898" height="25" fill="white"/>
</clipPath>
</defs>
</svg>
