<svg width="61" height="40" viewBox="0 0 61 40" fill="none" xmlns="http://www.w3.org/2000/svg">
<path d="M0.183594 0V13.3333V25.9998V40H60.1836V25.9998V13.3333V0H0.183594Z" fill="#B3031A"/>
<path d="M9.19954 7.09094L10.3798 9.67447H13.0198L11.1097 11.7964L11.5607 14.46L9.19954 13.2364L6.83815 14.4862L7.28889 11.7928L5.37891 9.67447H8.01885L9.19954 7.09094Z" fill="#F2D134"/>
<path d="M16.4609 2.44043L16.5824 3.84286L17.8151 4.28178L16.5706 4.95506L16.3383 6.27369L15.4393 5.30963L14.1289 5.50062L14.787 4.31818L14.2475 3.01137L15.4802 3.45042L16.4609 2.44043Z" fill="#F2D134"/>
<path d="M20.4652 6.75618L20.1221 8.12141L21.144 8.93881L19.7477 9.16887L19.0976 10.3394L18.5628 9.13476L17.2617 8.88736L18.27 7.98455L18.1867 6.57312L19.2082 7.39051L20.4652 6.75618Z" fill="#F2D134"/>
<path d="M20.3632 12.0799L19.9559 13.4273L20.9378 14.2921L19.5323 14.4558L18.8276 15.5942L18.3502 14.3655L17.0625 14.057L18.1124 13.203L18.0959 11.7892L19.0779 12.654L20.3632 12.0799Z" fill="#F2D134"/>
<path d="M17.4054 16.0047L17.03 17.3616L18.0322 18.203L16.631 18.3998L15.9531 19.5544L15.4471 18.3375L14.1523 18.0592L15.1818 17.1808L15.132 15.7678L16.1339 16.6092L17.4054 16.0047Z" fill="#F2D134"/>
</svg>
