<svg width="27" height="27" viewBox="0 0 27 27" fill="none" xmlns="http://www.w3.org/2000/svg">
<g clip-path="url(#clip0_3_150)">
<path d="M25.9805 11.1526L14.9675 11.1521C14.4812 11.1521 14.087 11.5462 14.087 12.0325V15.5507C14.087 16.0369 14.4812 16.4312 14.9674 16.4312H21.1693C20.4902 18.1936 19.2227 19.6696 17.6055 20.6074L20.25 25.1852C24.492 22.7319 27 18.4272 27 13.6085C27 12.9223 26.9494 12.4318 26.8483 11.8796C26.7714 11.4599 26.4071 11.1526 25.9805 11.1526Z" fill="#167EE6"/>
<path d="M13.5 21.7174C10.4649 21.7174 7.81534 20.0591 6.3923 17.6052L1.81464 20.2437C4.14418 24.2812 8.50816 27 13.5 27C15.9488 27 18.2595 26.3407 20.25 25.1916V25.1854L17.6055 20.6075C16.3959 21.3091 14.9961 21.7174 13.5 21.7174Z" fill="#12B347"/>
<path d="M20.25 25.1916V25.1853L17.6055 20.6074C16.3959 21.309 14.9962 21.7173 13.5 21.7173V26.9999C15.9488 26.9999 18.2596 26.3406 20.25 25.1916Z" fill="#0F993E"/>
<path d="M5.28261 13.5001C5.28261 12.004 5.69088 10.6044 6.3923 9.39486L1.81464 6.75635C0.65928 8.74059 0 11.045 0 13.5001C0 15.9552 0.65929 18.2596 1.81464 20.2438L6.3923 17.6053C5.69088 16.3957 5.28261 14.9961 5.28261 13.5001Z" fill="#FFD500"/>
<path d="M13.5 5.28261C15.4792 5.28261 17.2971 5.98588 18.7171 7.15568C19.0674 7.44424 19.5766 7.42341 19.8975 7.10252L22.3902 4.60977C22.7543 4.24569 22.7283 3.64974 22.3394 3.31235C19.9603 1.24838 16.8648 0 13.5 0C8.50816 0 4.14418 2.71883 1.81464 6.75628L6.3923 9.39479C7.81534 6.9409 10.4649 5.28261 13.5 5.28261Z" fill="#FF4B26"/>
<path d="M18.7171 7.15568C19.0674 7.44424 19.5766 7.42341 19.8975 7.10252L22.3902 4.60977C22.7542 4.24569 22.7283 3.64974 22.3394 3.31235C19.9603 1.24833 16.8648 0 13.5 0V5.28261C15.4791 5.28261 17.2971 5.98588 18.7171 7.15568Z" fill="#D93F21"/>
</g>
<defs>
<clipPath id="clip0_3_150">
<rect width="27" height="27" fill="white"/>
</clipPath>
</defs>
</svg>
