<svg width="75" height="25" viewBox="0 0 75 25" fill="none" xmlns="http://www.w3.org/2000/svg">
<g clip-path="url(#clip0_1_4642)">
<path d="M5.95917 7.47898e-05C5.72997 7.47898e-05 5.50354 7.47898e-05 5.27496 0.00131817C5.08362 0.0025709 4.89381 0.00619821 4.70059 0.00925524C4.28092 0.0141914 3.86224 0.0511188 3.44818 0.119701C3.0347 0.189779 2.63417 0.321895 2.26014 0.511572C1.88656 0.702856 1.54522 0.95142 1.24849 1.24823C0.950195 1.54421 0.701547 1.88632 0.512095 2.26141C0.322129 2.63575 0.190406 3.0369 0.121468 3.45098C0.0518761 3.86455 0.0144344 4.28288 0.00947026 4.70222C0.00367405 4.89384 0.00305703 5.08611 0 5.27776V19.7241C0.00305703 19.9182 0.0036647 20.1062 0.00947026 20.3003C0.0144344 20.7197 0.0518854 21.138 0.121468 21.5515C0.190209 21.9658 0.321942 22.3672 0.512095 22.7417C0.701454 23.1156 0.950139 23.4563 1.24849 23.7506C1.5441 24.0488 1.88566 24.2975 2.26014 24.4873C2.63417 24.6775 3.03465 24.8104 3.44818 24.8816C3.86232 24.9496 4.28097 24.9865 4.70061 24.9921C4.8938 24.9963 5.08361 24.9987 5.27499 24.9987C5.50353 25 5.72999 25 5.95917 25H68.834C69.0586 25 69.2869 25 69.5115 24.9987C69.702 24.9987 69.8973 24.9963 70.0877 24.9921C70.5066 24.9868 70.9244 24.9499 71.3377 24.8816C71.7526 24.8099 72.1545 24.677 72.5303 24.4873C72.9045 24.2974 73.2457 24.0487 73.5411 23.7506C73.8386 23.4551 74.0879 23.1147 74.2796 22.7417C74.4683 22.3669 74.5988 21.9656 74.6665 21.5515C74.7362 21.1379 74.775 20.7197 74.7825 20.3003C74.785 20.1062 74.785 19.9182 74.785 19.7241C74.7898 19.4971 74.7898 19.2713 74.7898 19.0405V5.96013C74.7898 5.73125 74.7898 5.5042 74.785 5.27777C74.785 5.08612 74.785 4.89385 74.7825 4.7022C74.775 4.28282 74.7362 3.86459 74.6665 3.45096C74.5986 3.03711 74.4681 2.636 74.2796 2.26139C73.8938 1.50957 73.282 0.897581 72.5303 0.511525C72.1545 0.322307 71.7525 0.190228 71.3377 0.119654C70.9245 0.0507636 70.5066 0.0138361 70.0877 0.00918045C69.8973 0.00613277 69.702 0.00246806 69.5115 0.00125273C69.2869 1.08834e-10 69.0587 0 68.834 0" fill="#A6A6A6"/>
<path d="M69.5085 0.546967L70.0791 0.554904C70.4683 0.559531 70.8566 0.593495 71.2406 0.656524C71.6038 0.718207 71.9558 0.833608 72.285 0.998931C72.9336 1.33321 73.4614 1.86206 73.7943 2.51139C73.9571 2.83608 74.0699 3.18353 74.1288 3.54196C74.1937 3.93196 74.23 4.32618 74.2374 4.72146C74.2393 4.89846 74.2393 5.08859 74.2393 5.2778C74.2442 5.51217 74.2442 5.73525 74.2442 5.96016V19.0405C74.2442 19.2676 74.2442 19.4892 74.2393 19.7125C74.2393 19.9158 74.2393 20.102 74.2368 20.2936C74.2295 20.6818 74.1938 21.069 74.13 21.452C74.0717 21.8152 73.9579 22.1672 73.7925 22.4958C73.6278 22.816 73.4136 23.1083 73.1578 23.3618C72.9024 23.6205 72.6071 23.8362 72.2831 24.0009C71.9549 24.1672 71.6034 24.283 71.2406 24.3445C70.8543 24.4076 70.4638 24.4417 70.0724 24.4465C69.8893 24.4507 69.6976 24.4531 69.5115 24.4531L68.834 24.4544L5.278 24.4531C5.08757 24.4531 4.90175 24.4507 4.71282 24.4465C4.32143 24.4414 3.93097 24.4073 3.54461 24.3445C3.18436 24.2825 2.83536 24.1671 2.50916 24.0021C2.18593 23.8385 1.89113 23.6239 1.63603 23.3667C1.37725 23.1125 1.1618 22.8177 0.998214 22.4939C0.832835 22.168 0.718379 21.8187 0.658837 21.4582C0.594536 21.0707 0.55975 20.679 0.554776 20.2863C0.550812 20.1545 0.545624 19.7156 0.545624 19.7156V5.27779C0.545624 5.27779 0.551158 4.84566 0.554814 4.71871C0.559581 4.32663 0.594162 3.93549 0.658267 3.54867C0.717921 3.18711 0.832461 2.83681 0.997925 2.50985C1.1609 2.18629 1.37515 1.89123 1.63239 1.6361C1.88933 1.37858 2.18508 1.16295 2.50885 0.997089C2.8343 0.832636 3.18265 0.718039 3.54217 0.657132C3.9298 0.593738 4.32162 0.559466 4.71436 0.554595L5.27831 0.546967" fill="black"/>
<path d="M37.5477 13.824C36.3254 13.824 35.3578 14.7407 35.3578 16.0139C35.3578 17.2361 36.3254 18.2037 37.5477 18.2037C38.7699 18.2037 39.7375 17.287 39.7375 16.0139C39.6865 14.7407 38.719 13.824 37.5477 13.824ZM37.5477 17.287C36.8856 17.287 36.3254 16.7268 36.3254 15.9629C36.3254 15.199 36.8856 14.6389 37.5477 14.6389C38.2097 14.6389 38.7699 15.1481 38.7699 15.9629C38.7699 16.7777 38.2097 17.287 37.5477 17.287ZM32.8116 13.824C31.5893 13.824 30.6217 14.7407 30.6217 16.0139C30.6217 17.2361 31.5893 18.2037 32.8116 18.2037C34.0338 18.2037 35.0014 17.287 35.0014 16.0139C34.9505 14.7407 33.9829 13.824 32.8116 13.824ZM32.8116 17.287C32.1495 17.287 31.5893 16.7268 31.5893 15.9629C31.5893 15.199 32.1495 14.6389 32.8116 14.6389C33.4736 14.6389 34.0338 15.1481 34.0338 15.9629C34.0338 16.7777 33.4227 17.287 32.8116 17.287ZM27.1588 14.4861V15.4028H29.3486C29.2977 15.912 29.094 16.3194 28.8394 16.574C28.5338 16.8796 28.0246 17.2361 27.1588 17.2361C25.7838 17.2361 24.7653 16.1666 24.7653 14.7916C24.7653 13.4166 25.8348 12.3472 27.1588 12.3472C27.8718 12.3472 28.432 12.6528 28.8394 13.0092L29.5014 12.3472C28.9412 11.838 28.2283 11.4305 27.2098 11.4305C25.3764 11.4305 23.7977 12.9583 23.7977 14.7916C23.7977 16.625 25.3764 18.1527 27.2098 18.1527C28.2283 18.1527 28.9412 17.8472 29.5523 17.1852C30.1634 16.574 30.3671 15.7083 30.3671 15.0463C30.3671 14.8426 30.3671 14.6389 30.3162 14.4861L27.1588 14.4861ZM50.2282 15.199C50.0245 14.6898 49.5152 13.824 48.3949 13.824C47.2745 13.824 46.3578 14.6898 46.3578 16.0139C46.3578 17.2361 47.2745 18.2037 48.4967 18.2037C49.4643 18.2037 50.0754 17.5926 50.2791 17.2361L49.5661 16.7268C49.3115 17.0833 49.006 17.3379 48.4967 17.3379C47.9874 17.3379 47.6819 17.1342 47.4273 16.6759L50.33 15.4537L50.2282 15.199ZM47.2745 15.912C47.2745 15.0972 47.9365 14.6389 48.3948 14.6389C48.7513 14.6389 49.1078 14.8426 49.2097 15.0972L47.2745 15.912ZM44.9319 18.0509H45.8995V11.6852H44.9319V18.0509ZM43.3532 14.3333C43.0986 14.0787 42.6912 13.8241 42.1819 13.8241C41.1125 13.8241 40.094 14.7917 40.094 16.0139C40.094 17.2361 41.0615 18.1527 42.1819 18.1527C42.6912 18.1527 43.0986 17.8981 43.3023 17.6435H43.3532V17.949C43.3532 18.7639 42.8949 19.2222 42.1819 19.2222C41.6217 19.2222 41.2143 18.8148 41.1125 18.4583L40.2976 18.8148C40.5523 19.375 41.1634 20.0879 42.2328 20.0879C43.3532 20.0879 44.2699 19.4259 44.2699 17.8472V13.9768H43.3532L43.3532 14.3333ZM42.2838 17.287C41.6217 17.287 41.0615 16.7268 41.0615 15.9629C41.0615 15.199 41.6217 14.6389 42.2838 14.6389C42.9458 14.6389 43.4551 15.199 43.4551 15.9629C43.4041 16.7777 42.8949 17.287 42.2838 17.287ZM54.6587 11.6852H52.3671V18.0509H53.3347V15.6574H54.6587C55.7282 15.6574 56.7467 14.8935 56.7467 13.6713C56.7467 12.449 55.7282 11.6852 54.6587 11.6852ZM54.7097 14.7407H53.3347V12.5509H54.7097C55.4226 12.5509 55.83 13.162 55.83 13.6203C55.83 14.1296 55.4226 14.7407 54.7097 14.7407ZM60.5661 13.824C59.8531 13.824 59.1402 14.1296 58.8856 14.7916L59.7513 15.1481C59.955 14.7916 60.2605 14.6898 60.617 14.6898C61.1263 14.6898 61.5846 14.9953 61.6355 15.5046V15.5555C61.4827 15.4537 61.0753 15.3009 60.6679 15.3009C59.7513 15.3009 58.8346 15.8101 58.8346 16.7268C58.8346 17.5925 59.5985 18.1527 60.4133 18.1527C61.0753 18.1527 61.3809 17.8472 61.6355 17.5416H61.6865V18.0509H62.6031V15.6064C62.5013 14.4351 61.6865 13.824 60.5661 13.824ZM60.4643 17.287C60.1587 17.287 59.7004 17.1342 59.7004 16.7268C59.7004 16.2176 60.2606 16.0648 60.7189 16.0648C61.1263 16.0648 61.33 16.1666 61.5846 16.2685C61.5337 16.8796 61.0244 17.287 60.4643 17.287ZM65.8624 13.9768L64.7929 16.7268H64.742L63.6216 13.9768H62.6031L64.2837 17.8472L63.3161 19.9861H64.2837L66.8809 13.9768L65.8624 13.9768ZM57.3069 18.0509H58.2744V11.6852H57.3069V18.0509Z" fill="white"/>
<path d="M8.16351 6.59259C8.01073 6.74537 7.90887 7 7.90887 7.30555V18.5601C7.90887 18.8657 8.01073 19.1203 8.16351 19.2731L8.21443 19.324L14.5292 13.0092V12.8565L8.16351 6.59259Z" fill="#5BC9F4"/>
<path d="M16.5663 15.0972L14.4783 13.0093V12.8565L16.5663 10.7686L16.6172 10.8195L19.1125 12.2454C19.8255 12.6528 19.8255 13.3148 19.1125 13.7222L16.5663 15.0972Z" fill="url(#paint0_linear_1_4642)"/>
<path d="M16.6172 15.0972L14.4783 12.9583L8.16351 19.2731C8.41814 19.5277 8.77462 19.5277 9.23295 19.324L16.6172 15.0972Z" fill="url(#paint1_linear_1_4642)"/>
<path d="M16.6172 10.7685L9.18202 6.54168C8.72369 6.28705 8.36721 6.33797 8.11258 6.5926L14.4783 12.9583L16.6172 10.7685Z" fill="url(#paint2_linear_1_4642)"/>
<path d="M38.719 10.1574C38.4134 10.1574 38.1588 10.0556 37.9551 9.90278C37.7514 9.69908 37.7004 9.44445 37.7004 9.1389V8.83335C37.7004 8.73149 37.7514 8.57871 37.8023 8.42594L38.006 8.47686C37.9551 8.62964 37.9551 8.78241 37.9551 8.88427C37.9551 9.1389 38.006 9.39352 38.1588 9.54631C38.3116 9.69909 38.4643 9.75002 38.719 9.75002C38.9736 9.75002 39.2792 9.69909 39.5338 9.54631C39.7884 9.39352 39.9921 9.24075 40.094 9.03705C39.8393 8.5278 39.7375 8.17132 39.7375 7.96762C39.7375 7.86576 39.7884 7.76391 39.8393 7.71299C39.8903 7.66206 39.9921 7.56021 40.1449 7.45835C40.1449 7.61113 40.1958 7.81483 40.2977 8.17132C40.3995 8.22224 40.5523 8.27317 40.7051 8.27317C40.739 8.27317 40.756 8.29015 40.756 8.32409V8.68057C40.756 8.71451 40.739 8.73149 40.7051 8.73149C40.6032 8.73149 40.4505 8.73149 40.3486 8.68057V8.83335C40.3486 9.08798 40.2977 9.29168 40.1449 9.49538C39.9921 9.69909 39.7884 9.85186 39.5338 10.0046C39.2282 10.0556 38.9736 10.1574 38.719 10.1574ZM39.1264 7.10187C39.0245 7.20372 38.9227 7.3565 38.7699 7.50928C38.6171 7.3565 38.4643 7.25465 38.3625 7.1528C38.5662 6.94909 38.668 6.84725 38.7699 6.74539C38.8717 6.84725 39.0245 6.9491 39.1264 7.10187Z" fill="white" stroke="white" stroke-width="0.10894" stroke-miterlimit="10"/>
<path d="M40.6541 8.68056C40.6315 8.68056 40.6315 8.68056 40.6541 8.68056L40.6032 8.27315C40.6032 8.23919 40.6202 8.22223 40.6541 8.22223C40.8069 8.22223 40.9088 8.1713 41.0106 8.12037C41.1125 8.06945 41.2143 7.96759 41.2653 7.81482L41.3671 7.61111C41.5199 7.30556 41.6726 7.10186 41.7745 6.94907C41.8764 6.79628 42.0801 6.74536 42.2328 6.74536C42.3347 6.74536 42.4365 6.79628 42.5384 6.94907C42.6402 7.10186 42.7421 7.25462 42.793 7.45832C42.8439 7.66202 42.8949 7.86573 42.8949 8.06943C42.8949 8.17129 42.8949 8.27314 42.8439 8.37498C42.793 8.47683 42.7421 8.57869 42.6402 8.62962C42.4365 8.62962 42.1819 8.57869 41.9273 8.52776C41.6726 8.47683 41.4689 8.37498 41.3162 8.27313C41.2143 8.37498 41.1124 8.47684 41.0106 8.52776C40.9088 8.62962 40.8069 8.68056 40.6541 8.68056ZM42.5384 8.27315C42.5384 8.01852 42.4875 7.81482 42.3856 7.61111C42.2838 7.4074 42.2328 7.30556 42.131 7.30556C42.0801 7.30556 41.9782 7.30556 41.9273 7.35648C41.8763 7.4074 41.8254 7.45833 41.7236 7.56019C41.6217 7.66204 41.5708 7.81482 41.4689 8.01852C41.7745 8.12037 42.131 8.22223 42.5384 8.27315Z" fill="white"/>
<path d="M40.6541 8.68056C40.6315 8.68056 40.6315 8.68056 40.6541 8.68056ZM40.6541 8.68056L40.6032 8.27315C40.6032 8.23919 40.6202 8.22223 40.6541 8.22223C40.8069 8.22223 40.9088 8.1713 41.0106 8.12037C41.1125 8.06945 41.2143 7.96759 41.2653 7.81482L41.3671 7.61111C41.5199 7.30556 41.6726 7.10186 41.7745 6.94907C41.8764 6.79628 42.0801 6.74536 42.2328 6.74536C42.3347 6.74536 42.4365 6.79628 42.5384 6.94907C42.6402 7.10186 42.7421 7.25462 42.793 7.45832C42.8439 7.66202 42.8949 7.86573 42.8949 8.06943C42.8949 8.17129 42.8949 8.27314 42.8439 8.37498C42.793 8.47683 42.7421 8.57869 42.6402 8.62962C42.4365 8.62962 42.1819 8.57869 41.9273 8.52776C41.6726 8.47683 41.4689 8.37498 41.3162 8.27313C41.2143 8.37498 41.1124 8.47684 41.0106 8.52776C40.9088 8.62962 40.8069 8.68056 40.6541 8.68056ZM42.5384 8.27315C42.5384 8.01852 42.4875 7.81482 42.3856 7.61111C42.2838 7.4074 42.2328 7.30556 42.131 7.30556C42.0801 7.30556 41.9782 7.30556 41.9273 7.35648C41.8763 7.4074 41.8254 7.45833 41.7236 7.56019C41.6217 7.66204 41.5708 7.81482 41.4689 8.01852C41.7745 8.12037 42.131 8.22223 42.5384 8.27315Z" stroke="white" stroke-width="0.10894" stroke-miterlimit="10"/>
<path d="M46.0014 8.47686C45.7976 8.47686 45.6449 8.42594 45.5939 8.42594C45.4921 8.42594 45.4412 8.37501 45.3393 8.37501C45.2375 8.32409 45.1865 8.32409 45.0847 8.27316C44.9828 8.22223 44.9319 8.17131 44.881 8.12038C44.83 8.06946 44.83 8.01853 44.83 8.01853C44.83 7.96761 44.83 7.86575 44.881 7.7639C44.9319 7.66204 44.9828 7.56019 44.9828 7.50927C45.0337 7.40741 45.1865 7.30556 45.3393 7.15279C45.543 7.00001 45.7467 6.89816 45.9504 6.79631V6.64354C46.1032 6.54168 46.2051 6.43983 46.3578 6.33798L46.4088 8.1713C46.5615 8.27316 46.7652 8.32408 46.9689 8.32408C47.0029 8.32408 47.0199 8.34106 47.0199 8.375V8.73148C47.0199 8.76543 47.0029 8.7824 46.9689 8.7824C46.7652 8.7824 46.5615 8.73148 46.4088 8.68055C46.256 8.57869 46.205 8.47684 46.1541 8.32407V8.22222L46.0014 8.47686ZM45.0847 7.66204C45.2375 7.81482 45.3902 7.86575 45.5939 7.91667C45.7976 7.9676 46.0013 7.9676 46.205 7.9676L46.0523 7.05093C45.5939 7.25464 45.2884 7.45834 45.0847 7.66204Z" fill="white" stroke="white" stroke-width="0.10894" stroke-miterlimit="10"/>
<path d="M48.5476 7.40742C48.5985 7.40742 48.6495 7.40742 48.7004 7.45834C48.6495 7.61112 48.5985 7.7639 48.5476 7.86575C48.4967 7.9676 48.4458 8.01853 48.4458 8.06946C48.5476 8.17131 48.7004 8.22224 48.8023 8.22224C48.9041 8.22224 49.006 8.27316 49.1587 8.27316C49.1927 8.27316 49.2097 8.29013 49.2097 8.32408V8.68056C49.2097 8.71451 49.1927 8.73148 49.1587 8.73148C48.8022 8.73148 48.4967 8.62962 48.293 8.42593L48.1912 8.52778C48.1402 8.5787 48.0384 8.62963 47.7838 8.68056C47.5291 8.73148 47.3254 8.73148 47.1217 8.73148C47.0878 8.73148 47.0708 8.7145 47.0708 8.68056V8.27315C47.0708 8.23919 47.0878 8.22223 47.1217 8.22223C47.3764 8.22223 47.5291 8.22223 47.7328 8.1713C47.8856 8.1713 47.9875 8.12038 48.0893 8.06945C48.1912 8.01852 48.2421 7.86574 48.3949 7.61112L48.4967 7.40741C48.3949 7.40741 48.4458 7.40742 48.5476 7.40742ZM48.0384 9.39353C47.9874 9.49538 47.8856 9.64816 47.6819 9.80094C47.5291 9.64816 47.3763 9.5463 47.3254 9.44446C47.4272 9.34261 47.5291 9.24075 47.6819 9.08798C47.7328 9.08798 47.8347 9.18983 48.0384 9.39353ZM48.9041 9.29167C48.8532 9.39353 48.7004 9.5463 48.5476 9.64815C48.3948 9.49537 48.2421 9.39352 48.1911 9.29167C48.293 9.18982 48.3948 9.08797 48.5476 8.9352C48.5985 8.98612 48.7004 9.13891 48.9041 9.29167Z" fill="white" stroke="white" stroke-width="0.10894" stroke-miterlimit="10"/>
<path d="M49.2097 8.68057C49.187 8.68057 49.187 8.68057 49.2097 8.68057L49.1588 8.32409C49.1588 8.29015 49.1757 8.27317 49.2097 8.27317C49.4134 8.27317 49.6171 8.22225 49.8208 8.12039C49.7699 7.71299 49.7189 7.00003 49.668 5.98152L49.6171 5.21763C49.7189 5.11578 49.8717 5.01392 49.9736 4.91208C49.9736 5.42133 50.0245 6.23615 50.0245 7.30559V8.06947C50.1773 8.17133 50.381 8.22225 50.5847 8.22225C50.6186 8.22225 50.6356 8.23923 50.6356 8.27317V8.62965C50.6356 8.66359 50.6186 8.68057 50.5847 8.68057C50.33 8.68057 50.0754 8.62965 49.9226 8.47686C49.7699 8.57872 49.668 8.62964 49.5662 8.62964C49.5152 8.68056 49.3625 8.68057 49.2097 8.68057Z" fill="white"/>
<path d="M49.2097 8.68057C49.187 8.68057 49.187 8.68057 49.2097 8.68057ZM49.2097 8.68057L49.1588 8.32409C49.1588 8.29015 49.1757 8.27317 49.2097 8.27317C49.4134 8.27317 49.6171 8.22225 49.8208 8.12039C49.7699 7.71299 49.7189 7.00003 49.668 5.98152L49.6171 5.21763C49.7189 5.11578 49.8717 5.01392 49.9736 4.91208C49.9736 5.42133 50.0245 6.23615 50.0245 7.30559V8.06947C50.1773 8.17133 50.381 8.22225 50.5847 8.22225C50.6186 8.22225 50.6356 8.23923 50.6356 8.27317V8.62965C50.6356 8.66359 50.6186 8.68057 50.5847 8.68057C50.33 8.68057 50.0754 8.62965 49.9226 8.47686C49.7699 8.57872 49.668 8.62964 49.5662 8.62964C49.5152 8.68056 49.3625 8.68057 49.2097 8.68057Z" stroke="white" stroke-width="0.10894" stroke-miterlimit="10"/>
<path d="M50.6356 8.68057L50.5847 8.32409C50.5847 8.29014 50.6016 8.27317 50.6356 8.27317H51.3485C51.2467 8.22224 51.1958 8.12039 51.0939 8.01854C50.9921 7.91668 51.043 7.7639 51.043 7.66206C51.043 7.50928 51.0939 7.35651 51.1958 7.15281C51.2976 6.94911 51.3995 6.84725 51.5523 6.7454C51.705 6.64354 51.8069 6.59262 51.9597 6.59262C52.1124 6.59262 52.2143 6.64354 52.3162 6.69448C52.418 6.7454 52.5708 6.84725 52.7236 7.00003L52.6217 7.15281C52.4689 7.10188 52.3671 7.05095 52.3162 7.05095H52.1125C51.8578 7.05095 51.6541 7.10187 51.3995 7.25466C51.3995 7.40744 51.4504 7.56021 51.5013 7.71299C51.6032 7.86577 51.705 7.96762 51.8578 8.01855C52.0106 8.1204 52.1634 8.1204 52.3671 8.17132C52.5199 8.1204 52.6217 8.1204 52.7745 8.06947C52.9273 8.01855 53.08 7.96761 53.3347 7.86576C53.3856 7.91668 53.4365 7.96761 53.4365 8.06947V8.12039C53.4365 8.22224 53.3347 8.3241 53.1819 8.37502C52.7236 8.47688 52.418 8.57873 52.1634 8.57873C51.9597 8.62965 51.705 8.62965 51.4504 8.68058C51.1958 8.73151 50.8902 8.68057 50.6356 8.68057Z" fill="white" stroke="white" stroke-width="0.10894" stroke-miterlimit="10"/>
<path d="M57.5106 8.98611L57.3578 8.06945C57.205 7.10186 57.1032 6.43983 57.0522 6.08334C57.0013 5.72686 57.0013 5.47223 57.0013 5.37038C57.0013 5.26852 57.0522 5.16667 57.1031 5.06482C57.1541 5.0139 57.2559 4.96297 57.3578 4.91205V4.96297C57.3578 4.96297 57.4087 5.16668 57.5615 5.57408L57.4087 5.67593V5.77779L57.6124 7.45834C57.6633 7.71297 57.6633 7.91667 57.6633 8.1713C57.7652 8.22223 57.9179 8.27316 58.0707 8.27316C58.1047 8.27316 58.1217 8.29014 58.1217 8.32408V8.68056C58.1217 8.7145 58.1047 8.73148 58.0707 8.73148C57.9179 8.73148 57.8161 8.68056 57.6633 8.62963V8.83333C57.6633 9.08797 57.6124 9.29166 57.4596 9.49537C57.3069 9.69908 57.1031 9.85185 56.8485 10.0046C56.5939 10.1574 56.3392 10.2083 56.0846 10.2083C55.7791 10.2083 55.5244 10.1065 55.3207 9.9537C55.117 9.75 55.0661 9.49537 55.0661 9.18982V8.88427C55.0661 8.78241 55.117 8.62963 55.1679 8.47686L55.3717 8.52778C55.3207 8.68056 55.3207 8.83333 55.3207 8.93519C55.3207 9.18982 55.3717 9.44444 55.5244 9.59723C55.6772 9.75 55.83 9.80094 56.0846 9.80094C56.2374 9.80094 56.4411 9.75001 56.6448 9.69908C56.8485 9.64815 57.0013 9.54631 57.1541 9.44445C57.3068 9.3426 57.4596 9.08797 57.5106 8.98611Z" fill="white" stroke="white" stroke-width="0.10894" stroke-miterlimit="10"/>
<path d="M62.5013 8.68058C62.3485 8.68058 62.1957 8.62965 62.043 8.57872C61.8902 8.5278 61.7374 8.42595 61.6356 8.32409C61.4828 8.42595 61.2791 8.5278 61.0244 8.57872C60.7698 8.62964 60.5661 8.68058 60.3115 8.68058C60.0568 8.68058 59.7513 8.62965 59.4967 8.57872C59.242 8.5278 58.9874 8.42595 58.8346 8.37501L58.7328 8.47687C58.6309 8.62965 58.4272 8.68058 58.1217 8.68058C58.0877 8.68058 58.0707 8.6636 58.0707 8.62965V8.27318C58.0707 8.23922 58.0877 8.22226 58.1217 8.22226C58.2745 8.22226 58.4272 8.17133 58.5291 8.1204C58.6309 8.06947 58.7328 7.91669 58.8346 7.76392L58.9365 7.61115C58.9874 7.56023 59.0383 7.50929 59.0893 7.50929C59.1402 7.50929 59.1911 7.50929 59.242 7.56022C59.1402 7.76392 59.0893 7.86577 59.0893 7.96762C59.1911 8.01855 59.293 8.06948 59.3439 8.06948C60.0569 7.10189 60.668 6.64355 61.1772 6.64355C61.2791 6.64355 61.4319 6.69448 61.5846 6.79633C61.7374 6.89819 61.8902 7.00004 61.992 7.10189C62.0939 7.20373 62.1957 7.35652 62.1957 7.45836C62.1957 7.66207 62.1448 7.86577 61.992 8.06947C62.1448 8.17132 62.3485 8.22225 62.6032 8.22225C62.6371 8.22225 62.6541 8.23922 62.6541 8.27317L62.5013 8.68058C62.5239 8.68058 62.5239 8.68058 62.5013 8.68058ZM60.3624 8.27317C60.8717 8.27317 61.33 8.12039 61.8393 7.81484C61.7374 7.61113 61.5846 7.45836 61.4319 7.35651C61.2791 7.25465 61.1263 7.20373 60.9735 7.20373C60.8207 7.20373 60.5661 7.30558 60.3624 7.45836C60.1078 7.61114 59.8532 7.86577 59.5476 8.22225C59.8531 8.22225 60.1587 8.27317 60.3624 8.27317Z" fill="white"/>
<path d="M62.5013 8.68058C62.3485 8.68058 62.1957 8.62965 62.043 8.57872C61.8902 8.5278 61.7374 8.42595 61.6356 8.32409C61.4828 8.42595 61.2791 8.5278 61.0244 8.57872C60.7698 8.62964 60.5661 8.68058 60.3115 8.68058C60.0568 8.68058 59.7513 8.62965 59.4967 8.57872C59.242 8.5278 58.9874 8.42595 58.8346 8.37501L58.7328 8.47687C58.6309 8.62965 58.4272 8.68058 58.1217 8.68058C58.0877 8.68058 58.0707 8.6636 58.0707 8.62965V8.27318C58.0707 8.23922 58.0877 8.22226 58.1217 8.22226C58.2745 8.22226 58.4272 8.17133 58.5291 8.1204C58.6309 8.06947 58.7328 7.91669 58.8346 7.76392L58.9365 7.61115C58.9874 7.56023 59.0383 7.50929 59.0893 7.50929C59.1402 7.50929 59.1911 7.50929 59.242 7.56022C59.1402 7.76392 59.0893 7.86577 59.0893 7.96762C59.1911 8.01855 59.293 8.06948 59.3439 8.06948C60.0569 7.10189 60.668 6.64355 61.1772 6.64355C61.2791 6.64355 61.4319 6.69448 61.5846 6.79633C61.7374 6.89819 61.8902 7.00004 61.992 7.10189C62.0939 7.20373 62.1957 7.35652 62.1957 7.45836C62.1957 7.66207 62.1448 7.86577 61.992 8.06947C62.1448 8.17132 62.3485 8.22225 62.6032 8.22225C62.6371 8.22225 62.6541 8.23922 62.6541 8.27317L62.5013 8.68058ZM62.5013 8.68058C62.5239 8.68058 62.5239 8.68058 62.5013 8.68058ZM60.3624 8.27317C60.8717 8.27317 61.33 8.12039 61.8393 7.81484C61.7374 7.61113 61.5846 7.45836 61.4319 7.35651C61.2791 7.25465 61.1263 7.20373 60.9735 7.20373C60.8207 7.20373 60.5661 7.30558 60.3624 7.45836C60.1078 7.61114 59.8532 7.86577 59.5476 8.22225C59.8531 8.22225 60.1587 8.27317 60.3624 8.27317Z" stroke="white" stroke-width="0.10894" stroke-miterlimit="10"/>
<path d="M62.5522 8.68055C62.5296 8.68055 62.5296 8.68055 62.5522 8.68055L62.5013 8.32408C62.5013 8.29013 62.5183 8.27315 62.5522 8.27315C63.1124 8.27315 63.5198 8.22223 63.8254 8.12038L64.1309 8.01852C64.3346 7.91667 64.5383 7.86574 64.6911 7.86574C64.5383 7.81482 64.3855 7.71297 64.2837 7.61111C64.1309 7.50926 64.0291 7.4074 63.9272 7.35648C63.8254 7.30556 63.7235 7.30556 63.6216 7.30556C63.418 7.30556 63.2652 7.35648 63.1633 7.45834L63.0105 7.56019C62.9596 7.50927 62.9087 7.40741 62.9087 7.35648C62.9087 7.20371 62.9596 7.10185 63.1124 7.00001C63.2142 6.89815 63.4179 6.84723 63.6216 6.84723C63.7235 6.84723 63.8763 6.89815 63.9781 6.94908C64.08 7.00001 64.2328 7.10186 64.3855 7.20371C64.5892 7.35649 64.742 7.45835 64.8948 7.50927C65.0476 7.56019 65.1494 7.61112 65.3022 7.66205C65.455 7.71297 65.6587 7.71297 65.9133 7.71297L65.7096 8.12038C65.6078 8.12038 65.5059 8.12038 65.4041 8.06945H65.3022C65.1494 8.06945 65.0476 8.06945 64.9457 8.12038C64.8439 8.1713 64.6402 8.22223 64.3855 8.37501C64.1309 8.52778 63.8763 8.62964 63.6217 8.68056C63.367 8.62964 63.0105 8.68055 62.5522 8.68055Z" fill="white"/>
<path d="M62.5522 8.68055C62.5296 8.68055 62.5296 8.68055 62.5522 8.68055ZM62.5522 8.68055L62.5013 8.32408C62.5013 8.29013 62.5183 8.27315 62.5522 8.27315C63.1124 8.27315 63.5198 8.22223 63.8254 8.12038L64.1309 8.01852C64.3346 7.91667 64.5383 7.86574 64.6911 7.86574C64.5383 7.81482 64.3855 7.71297 64.2837 7.61111C64.1309 7.50926 64.0291 7.4074 63.9272 7.35648C63.8254 7.30556 63.7235 7.30556 63.6216 7.30556C63.418 7.30556 63.2652 7.35648 63.1633 7.45834L63.0105 7.56019C62.9596 7.50927 62.9087 7.40741 62.9087 7.35648C62.9087 7.20371 62.9596 7.10185 63.1124 7.00001C63.2142 6.89815 63.4179 6.84723 63.6216 6.84723C63.7235 6.84723 63.8763 6.89815 63.9781 6.94908C64.08 7.00001 64.2328 7.10186 64.3855 7.20371C64.5892 7.35649 64.742 7.45835 64.8948 7.50927C65.0476 7.56019 65.1494 7.61112 65.3022 7.66205C65.455 7.71297 65.6587 7.71297 65.9133 7.71297L65.7096 8.12038C65.6078 8.12038 65.5059 8.12038 65.4041 8.06945H65.3022C65.1494 8.06945 65.0476 8.06945 64.9457 8.12038C64.8439 8.1713 64.6402 8.22223 64.3855 8.37501C64.1309 8.52778 63.8763 8.62964 63.6217 8.68056C63.367 8.62964 63.0105 8.68055 62.5522 8.68055Z" stroke="white" stroke-width="0.10894" stroke-miterlimit="10"/>
<path d="M66.6263 6.79631V7.15279C66.6263 7.50926 66.6263 8.01853 66.5754 8.62963L66.3207 8.68056C66.3207 7.35649 66.2698 6.28705 66.1679 5.4213V5.37038C66.1679 5.26852 66.2189 5.16667 66.2698 5.06483C66.3207 5.0139 66.4226 4.96297 66.5753 4.91205V4.96297C66.5753 4.96297 66.6263 5.16668 66.779 5.57408L66.6263 5.72686V5.77778C66.6263 6.13425 66.6263 6.49076 66.6263 6.79631Z" fill="white" stroke="white" stroke-width="0.10894" stroke-miterlimit="10"/>
</g>
<defs>
<linearGradient id="paint0_linear_1_4642" x1="18.6655" y1="12.9329" x2="6.35325" y2="12.9329" gradientUnits="userSpaceOnUse">
<stop stop-color="#FEE000"/>
<stop offset="0.1941" stop-color="#FCCF0B"/>
<stop offset="0.5469" stop-color="#FAB318"/>
<stop offset="0.8279" stop-color="#F9A21B"/>
<stop offset="1" stop-color="#F99B1C"/>
</linearGradient>
<linearGradient id="paint1_linear_1_4642" x1="15.4683" y1="14.1072" x2="3.8881" y2="25.6874" gradientUnits="userSpaceOnUse">
<stop stop-color="#EF4547"/>
<stop offset="1" stop-color="#C6186D"/>
</linearGradient>
<linearGradient id="paint2_linear_1_4642" x1="3.83214" y1="0.147821" x2="13.2872" y2="9.60285" gradientUnits="userSpaceOnUse">
<stop stop-color="#279E6F"/>
<stop offset="0.3168" stop-color="#4DAB6D"/>
<stop offset="0.7398" stop-color="#6ABA6A"/>
<stop offset="1" stop-color="#74C169"/>
</linearGradient>
<clipPath id="clip0_1_4642">
<rect width="74.7898" height="25" fill="white"/>
</clipPath>
</defs>
</svg>
