<svg width="408" height="308" viewBox="0 0 408 308" fill="none" xmlns="http://www.w3.org/2000/svg">
<path d="M316.156 74.9115C315.188 63.2046 305.366 54 293.387 54C283.04 54 274.308 60.8632 271.491 70.269C270.845 70.1684 270.193 70.1013 269.521 70.1013C265.4 70.1013 261.756 72.1139 259.491 75.1933C258.624 74.9384 257.703 74.7975 256.748 74.7975C251.363 74.7975 247 79.1515 247 84.5253C247 89.8991 251.363 94.2532 256.748 94.2532C258.785 94.2532 260.674 93.6292 262.24 92.5625C264.291 94.0385 266.798 94.9241 269.521 94.9241C270.328 94.9241 271.114 94.8435 271.881 94.6959C271.934 101.499 277.481 107 284.311 107C289.427 107 293.824 103.914 295.733 99.4995C299.403 99.1238 302.818 97.8827 305.77 95.9773C308.015 98.2315 311.128 99.6203 314.563 99.6203C321.434 99.6203 327 94.0653 327 87.2089C327 80.8958 322.274 75.6965 316.156 74.9115Z" fill="url(#paint0_linear_3_82)"/>
<path d="M408 237H273V172.554C273 162.385 281.215 154.141 291.35 154.141C292.75 154.141 294.113 154.299 295.424 154.597C297.192 132.986 315.231 116 337.223 116C355.857 116 371.653 128.194 377.118 145.063C378.008 144.978 378.909 144.935 379.82 144.935C395.165 144.935 407.644 157.241 407.993 172.554L408 237Z" fill="url(#paint1_linear_3_82)"/>
<path d="M0 178H200V83.1957C200 68.236 187.829 56.1087 172.816 56.1087C170.741 56.1087 168.721 56.3402 166.78 56.7787C164.16 24.9872 137.436 0 104.854 0C77.2486 0 53.8476 17.9379 45.7507 42.754C44.4332 42.6291 43.0979 42.5652 41.7476 42.5652C19.0155 42.5652 0 59.5 0.0110779 83.1957L0 178Z" fill="url(#paint2_linear_3_82)"/>
<path d="M167 232C164.6 219.6 166 193.5 167 182H142C142 187.833 142.5 201.2 144.5 208C147 216.5 151.5 235 160.5 250.5C167.689 262.882 180.5 293 186.5 304C184 287 181 271 176 255C173.465 246.887 170 247.5 167 232Z" fill="#4B87A4"/>
<path d="M166.945 182H140.984C139.984 189.333 135.757 208.2 133.984 226C130.945 256.5 108.445 305 112.484 303.5C124.445 282.5 137.484 268 139.484 254C139.484 254 140.784 234.6 153.984 217C167.184 199.4 168.278 189.333 166.945 182Z" fill="#626E7B"/>
<path d="M153.767 118.607C153.767 118.607 155.214 120.778 152.32 124.395C149.426 128.013 145.808 130.907 144.361 133.077C142.914 135.248 153.043 140.313 153.043 140.313L161.002 130.183L162.449 127.289C162.449 127.289 158.832 125.119 158.832 113.542C155.214 117.16 153.767 118.607 153.767 118.607Z" fill="#F1F3F6"/>
<path d="M141.468 101.966C139.89 108.283 140.744 120.054 147.256 120.778C153.768 121.501 163.173 118.607 163.173 107.754C163.173 96.9017 143.638 93.2841 141.468 101.966Z" fill="#F1F3F6"/>
<path d="M129.297 157.743C131.551 157.346 136.299 148.333 138.367 144.251C139.772 141.595 143.051 135.848 144.927 134.104C147.273 131.925 152.145 133.153 150.349 138.447C148.912 142.682 141.158 155.833 137.461 161.88C133.749 167.181 129.455 166.544 125.479 163.759C121.503 160.975 104.369 147.22 101.718 145.364C99.0679 143.508 94.7738 142.87 93.661 140.511C92.5482 138.152 92.9729 135.289 95.8357 135.714C98.6984 136.138 100.818 141.573 104.078 144.251C107.337 146.929 127.044 158.14 129.297 157.743Z" fill="#F1F3F6"/>
<path d="M90.8272 126.318C91.883 130.266 95.1412 135.252 97.8076 138.768C98.7434 140.002 98.0727 141.84 96.5475 142.109L92.4778 142.828C91.8618 142.936 91.2378 142.757 90.7863 142.324C88.334 139.972 80.2811 131.995 78.0585 126.587C77.6137 125.505 78.5025 124.5 79.6725 124.5L88.6437 124.5C89.6888 124.5 90.5572 125.308 90.8272 126.318Z" fill="#4B87A4"/>
<path d="M147.256 101.966C144.97 99.6798 142.915 99.7956 142.191 101.243C141.468 102.69 137.127 101.966 142.915 96.9015C148.703 91.8369 157.385 93.2839 157.385 93.2839C157.385 93.2839 158.109 85.3253 164.62 88.9429C171.132 92.5604 169.685 99.0721 163.897 98.3486C164.62 101.966 166.067 111.372 161.003 114.266C155.938 117.16 159.556 112.819 160.279 111.372C161.003 109.925 161.726 107.031 159.556 107.031C157.385 107.031 157.385 109.925 155.938 110.648C154.491 111.372 149.427 104.137 147.256 101.966Z" fill="#4B87A4"/>
<path d="M172.267 131.25C168.584 127.152 165.911 126.347 164.925 127.629C161.745 131.765 162.467 138.396 167.765 145.003C167.765 145.003 175.583 152.282 179.046 157.983C182.509 163.685 184.822 168.248 186.939 178.99C189.056 189.732 190.463 196.131 190.256 200.022C190.048 203.912 188.237 207.583 189.607 207.118C190.978 206.653 191.663 206.421 190.758 208.256C190.758 208.256 190.562 214.434 193.058 210.531C195.554 206.628 192.764 198.407 192.971 194.516C193.179 190.625 192.615 170.952 188.895 159.989C185.175 149.027 175.949 135.349 172.267 131.25Z" fill="#F1F3F6"/>
<path d="M146.532 130.907C143.637 133.077 136.402 140.313 138.573 147.548C140.743 154.783 143.637 162.018 142.19 169.977C140.743 177.935 137.849 190.618 142.19 188.447C146.532 186.276 158.108 183.382 162.449 184.106C166.79 184.829 168.961 185.553 167.513 181.212C166.066 176.871 164.619 154.566 167.513 144.437C161.5 138 163 127 166.5 127C163.5 125.842 161.002 125.842 161.002 125.842C161.002 125.842 161.725 128.736 156.661 133.077C151.596 137.419 147.255 133.801 146.532 130.907Z" fill="#DBE8EB"/>
<path d="M113.117 304.633C113.654 304.764 114.195 304.435 114.325 303.898L115.634 298.529C115.798 297.853 115.24 297.22 114.55 297.298L98.5966 299.1C97.4862 299.226 97.3864 300.801 98.4721 301.066L113.117 304.633Z" fill="#4B87A4"/>
<path d="M185.577 305.764C186.129 305.728 186.546 305.252 186.51 304.701L186.15 299.185C186.105 298.492 185.383 298.055 184.748 298.336L170.066 304.833C169.044 305.286 169.421 306.818 170.536 306.746L185.577 305.764Z" fill="#4B87A4"/>
<path d="M191 208L232 264" stroke="#626E7B" stroke-width="2" stroke-linecap="round"/>
<path d="M235 258L260.5 291.5" stroke="#4B87A4" stroke-width="20" stroke-linecap="round"/>
<circle cx="257.5" cy="298.5" r="5.5" fill="#D9DEE4" stroke="white" stroke-width="2"/>
<defs>
<linearGradient id="paint0_linear_3_82" x1="287" y1="54" x2="287" y2="107" gradientUnits="userSpaceOnUse">
<stop stop-color="#F1F3F6"/>
<stop offset="1" stop-color="#F1F3F6" stop-opacity="0"/>
</linearGradient>
<linearGradient id="paint1_linear_3_82" x1="341" y1="111.5" x2="341" y2="192.5" gradientUnits="userSpaceOnUse">
<stop stop-color="#F1F3F6"/>
<stop offset="1" stop-color="#F1F3F6" stop-opacity="0"/>
</linearGradient>
<linearGradient id="paint2_linear_3_82" x1="100" y1="0" x2="100" y2="99.5" gradientUnits="userSpaceOnUse">
<stop stop-color="#F1F3F6"/>
<stop offset="1" stop-color="#F1F3F6" stop-opacity="0"/>
</linearGradient>
</defs>
</svg>
