<svg width="55" height="55" viewBox="0 0 55 55" fill="none" xmlns="http://www.w3.org/2000/svg">
<rect width="55" height="55" rx="10" fill="#F1F3F6"/>
<mask id="mask0_1_4660" style="mask-type:luminance" maskUnits="userSpaceOnUse" x="4" y="3" width="48" height="48">
<path d="M34.259 4.82069C34.259 5.34115 34.6809 5.76305 35.2014 5.76305C35.7217 5.76305 36.1436 5.34115 36.1436 4.82069C36.1436 4.30032 35.7217 3.87842 35.2014 3.87842C34.6809 3.87842 34.259 4.30032 34.259 4.82069ZM30.4897 4.82069C30.4897 5.34115 30.9116 5.76305 31.432 5.76305C31.9525 5.76305 32.3744 5.34115 32.3744 4.82069C32.3744 4.30032 31.9525 3.87842 31.432 3.87842C30.9116 3.87842 30.4897 4.30032 30.4897 4.82069ZM24.8358 4.82069V6.70532C24.8358 7.22578 25.2577 7.64768 25.7781 7.64768C26.2986 7.64768 26.7205 7.22578 26.7205 6.70532V4.82069C26.7205 4.30032 26.2986 3.87842 25.7781 3.87842C25.2577 3.87842 24.8358 4.30032 24.8358 4.82069ZM32.3744 6.70532C32.3744 7.22578 32.7963 7.64768 33.3167 7.64768C33.8371 7.64768 34.259 7.22578 34.259 6.70532C34.259 6.18495 33.8371 5.76305 33.3167 5.76305C32.7963 5.76305 32.3744 6.18495 32.3744 6.70532ZM28.6051 6.70532C28.6051 7.22578 29.027 7.64768 29.5474 7.64768C30.0678 7.64768 30.4897 7.22578 30.4897 6.70532C30.4897 6.18495 30.0678 5.76305 29.5474 5.76305C29.027 5.76305 28.6051 6.18495 28.6051 6.70532ZM19.1819 6.70532V8.59004C19.1819 9.11041 19.6038 9.53231 20.1242 9.53231H21.0665V6.70532C21.0665 6.18495 20.6446 5.76305 20.1242 5.76305C19.6038 5.76305 19.1819 6.18495 19.1819 6.70532ZM30.4897 8.59005C30.4897 9.11041 30.9116 9.53232 31.432 9.53232C31.9525 9.53232 32.3744 9.11041 32.3744 8.59005C32.3744 8.06959 31.9525 7.64768 31.432 7.64768C30.9116 7.64768 30.4897 8.06959 30.4897 8.59005ZM26.7205 8.59005V10.4747C26.7205 10.995 27.1424 11.4169 27.6627 11.4169H28.6051V8.59005C28.6051 8.06959 28.1832 7.64768 27.6627 7.64768C27.1424 7.64768 26.7205 8.06959 26.7205 8.59005ZM21.0665 7.64768V14.2439C21.0665 14.7644 21.4884 15.1862 22.0088 15.1862H22.9511V8.59005C22.9511 8.06959 22.5293 7.64768 22.0088 7.64768H21.0665ZM34.259 9.53232V12.3593C34.259 12.8797 34.6809 13.3016 35.2014 13.3016C35.7217 13.3016 36.1436 12.8797 36.1436 12.3593V10.4747C36.1436 9.95422 35.7217 9.53232 35.2014 9.53232H34.259ZM33.3167 9.53232C32.7963 9.53232 32.3744 9.95422 32.3744 10.4747C32.3744 10.995 32.7963 11.4169 33.3167 11.4169H34.259V9.53232H33.3167ZM28.6051 9.53232V12.3593C28.6051 12.8797 29.027 13.3016 29.5474 13.3016C30.0678 13.3016 30.4897 12.8797 30.4897 12.3593V10.4747C30.4897 9.95422 30.0678 9.53232 29.5474 9.53232H28.6051ZM22.9511 9.53232V16.1286C22.9511 16.649 23.373 17.0709 23.8935 17.0709C24.4139 17.0709 24.8358 16.649 24.8358 16.1286V10.4747C24.8358 9.95422 24.4139 9.53231 23.8935 9.53231L22.9511 9.53232ZM20.1242 11.4169C19.6038 11.4169 19.1819 11.8389 19.1819 12.3593C19.1819 12.8797 19.6038 13.3016 20.1242 13.3016H21.0665V11.4169H20.1242ZM30.4897 14.2439V22.7248H31.432C31.9525 22.7248 32.3744 22.3029 32.3744 21.7825V14.2439C32.3744 13.7235 31.9525 13.3016 31.432 13.3016C30.9116 13.3016 30.4897 13.7235 30.4897 14.2439ZM26.7205 14.2439V20.8402H27.6627C28.1832 20.8402 28.6051 20.4183 28.6051 19.8978V14.2439C28.6051 13.7235 28.1832 13.3016 27.6627 13.3016C27.1424 13.3016 26.7205 13.7235 26.7205 14.2439ZM34.259 16.1286V18.0132C34.259 18.5337 34.6809 18.9556 35.2014 18.9556C35.7217 18.9556 36.1436 18.5337 36.1436 18.0132V16.1286C36.1436 15.6081 35.7217 15.1862 35.2014 15.1862C34.6809 15.1862 34.259 15.6081 34.259 16.1286ZM19.1819 16.1286V18.0132C19.1819 18.5337 19.6038 18.9556 20.1242 18.9556H21.0665V16.1286C21.0665 15.6081 20.6446 15.1862 20.1242 15.1862C19.6038 15.1862 19.1819 15.6081 19.1819 16.1286ZM28.6051 17.0709V18.9556H30.4897V17.0709H28.6051ZM21.0665 17.0709V18.9556H22.0088C22.5293 18.9556 22.9511 18.5337 22.9511 18.0132C22.9511 17.4927 22.5293 17.0709 22.0088 17.0709H21.0665ZM47.4515 18.9556V20.8402H48.3938C48.9143 20.8402 49.3362 20.4183 49.3362 19.8978C49.3362 19.3775 48.9143 18.9556 48.3938 18.9556H47.4515ZM46.5092 18.9556C45.9888 18.9556 45.5669 19.3775 45.5669 19.8978C45.5669 20.4183 45.9888 20.8402 46.5092 20.8402H47.4515V18.9556H46.5092ZM41.7976 19.8978V29.3211C41.7976 29.8415 42.2194 30.2634 42.7399 30.2634C43.2604 30.2634 43.6823 29.8415 43.6823 29.3211V19.8978C43.6823 19.3775 43.2604 18.9556 42.7399 18.9556C42.2194 18.9556 41.7976 19.3775 41.7976 19.8978ZM38.0283 18.9556V24.6095H39.9129V19.8978C39.9129 19.3775 39.4911 18.9556 38.9706 18.9556H38.0283ZM37.086 18.9556C36.5655 18.9556 36.1436 19.3775 36.1436 19.8978C36.1436 20.4183 36.5655 20.8402 37.086 20.8402H38.0283V18.9556H37.086ZM24.8358 18.9556V23.6671C24.8358 24.1876 25.2577 24.6095 25.7781 24.6095C26.2986 24.6095 26.7205 24.1876 26.7205 23.6671V18.9556H24.8358ZM23.8935 18.9556C23.373 18.9556 22.9511 19.3775 22.9511 19.8978C22.9511 20.4183 23.373 20.8402 23.8935 20.8402H24.8358V18.9556H23.8935ZM17.2972 18.9556V20.8402H18.2396C18.76 20.8402 19.1819 20.4183 19.1819 19.8978C19.1819 19.3775 18.76 18.9556 18.2396 18.9556H17.2972ZM16.3549 18.9556C15.8345 18.9556 15.4126 19.3775 15.4126 19.8978C15.4126 20.4183 15.8345 20.8402 16.3549 20.8402H17.2972V18.9556H16.3549ZM11.6433 18.9556V20.8402H12.5856C13.1061 20.8402 13.528 20.4183 13.528 19.8978C13.528 19.3775 13.1061 18.9556 12.5856 18.9556H11.6433ZM9.75869 18.9556V22.7248H10.701C11.2214 22.7248 11.6433 22.3029 11.6433 21.7825L11.6433 18.9556H9.75869ZM7.87406 18.9556V22.7248H9.75869V18.9556H7.87406ZM5.98934 18.9556V22.7248H7.87406V18.9556H5.98934ZM5.04707 18.9556C4.52661 18.9556 4.10471 19.3775 4.10471 19.8978V27.4365C4.10471 27.9568 4.52661 28.3787 5.04707 28.3787H5.98934V18.9556H5.04707ZM49.3362 21.7825C49.3362 22.3029 49.7581 22.7248 50.2785 22.7248C50.7989 22.7248 51.2208 22.3029 51.2208 21.7825C51.2208 21.2621 50.7989 20.8402 50.2785 20.8402C49.7581 20.8402 49.3362 21.2621 49.3362 21.7825ZM34.259 21.7825V27.4365C34.259 27.9568 34.6809 28.3787 35.2014 28.3787C35.7217 28.3787 36.1436 27.9568 36.1436 27.4365V21.7825C36.1436 21.2621 35.7217 20.8402 35.2014 20.8402C34.6809 20.8402 34.259 21.2621 34.259 21.7825ZM29.5474 20.8402C29.027 20.8402 28.6051 21.2621 28.6051 21.7825C28.6051 22.3029 29.027 22.7248 29.5474 22.7248H30.4897V20.8402H29.5474ZM19.1819 21.7825V26.4941H20.1242C20.6446 26.4941 21.0665 26.0722 21.0665 25.5518V21.7825C21.0665 21.2621 20.6446 20.8402 20.1242 20.8402C19.6038 20.8402 19.1819 21.2621 19.1819 21.7825ZM45.5669 23.6671C45.5669 24.1876 45.9888 24.6095 46.5092 24.6095C47.0296 24.6095 47.4515 24.1876 47.4515 23.6671C47.4515 23.1467 47.0296 22.7248 46.5092 22.7248C45.9888 22.7248 45.5669 23.1467 45.5669 23.6671ZM39.9129 22.7248V24.6095H41.7976V22.7248H39.9129ZM36.1436 22.7248V24.6095H38.0283V22.7248H36.1436ZM21.0665 22.7248V24.6095H22.0088C22.5293 24.6095 22.9511 24.1876 22.9511 23.6671C22.9511 23.1467 22.5293 22.7248 22.0088 22.7248H21.0665ZM17.2972 22.7248V28.3787H18.2396C18.76 28.3787 19.1819 27.9568 19.1819 27.4365V22.7248H17.2972ZM16.3549 22.7248C15.8345 22.7248 15.4126 23.1467 15.4126 23.6671C15.4126 24.1876 15.8345 24.6095 16.3549 24.6095H17.2972V22.7248H16.3549ZM49.3362 25.5518V35.9174H50.2785C50.7989 35.9174 51.2208 35.4954 51.2208 34.975V25.5518C51.2208 25.0314 50.7989 24.6095 50.2785 24.6095C49.7581 24.6095 49.3362 25.0314 49.3362 25.5518ZM33.3167 24.6095C32.7963 24.6095 32.3744 25.0314 32.3744 25.5518C32.3744 26.0722 32.7963 26.4941 33.3167 26.4941H34.259V24.6095H33.3167ZM28.6051 25.5518C28.6051 26.0722 29.027 26.4941 29.5474 26.4941C30.0678 26.4941 30.4897 26.0722 30.4897 25.5518C30.4897 25.0314 30.0678 24.6095 29.5474 24.6095C29.027 24.6095 28.6051 25.0314 28.6051 25.5518ZM22.9511 25.5518V27.4365C22.9511 27.9568 23.373 28.3787 23.8935 28.3787C24.4139 28.3787 24.8358 27.9568 24.8358 27.4365V25.5518C24.8358 25.0314 24.4139 24.6095 23.8935 24.6095C23.373 24.6095 22.9511 25.0314 22.9511 25.5518ZM11.6433 24.6095V26.4941H12.5856C13.1061 26.4941 13.528 26.0722 13.528 25.5518C13.528 25.0314 13.1061 24.6095 12.5856 24.6095H11.6433ZM9.75869 24.6095V26.4941H11.6433V24.6095H9.75869ZM7.87406 24.6095V28.3787H8.81633C9.33679 28.3787 9.75869 27.9568 9.75869 27.4365L9.75869 24.6095H7.87406ZM5.98934 24.6095V29.3211C5.98934 29.8415 6.41124 30.2634 6.9317 30.2634C7.45216 30.2634 7.87406 29.8415 7.87406 29.3211V24.6095H5.98934ZM38.0283 27.4365V35.9174H39.9129V27.4365C39.9129 26.916 39.4911 26.4941 38.9706 26.4941C38.4502 26.4941 38.0283 26.916 38.0283 27.4365ZM15.4126 26.4941V28.3787H17.2972V26.4941H15.4126ZM14.4702 26.4941C13.9499 26.4941 13.528 26.916 13.528 27.4365C13.528 27.9568 13.9499 28.3787 14.4702 28.3787H15.4126V26.4941H14.4702ZM45.5669 29.3211V31.2057C45.5669 31.7262 45.9888 32.148 46.5092 32.148C47.0296 32.148 47.4515 31.7262 47.4515 31.2057V29.3211C47.4515 28.8006 47.0296 28.3787 46.5092 28.3787C45.9888 28.3787 45.5669 28.8006 45.5669 29.3211ZM37.086 28.3787C36.5655 28.3787 36.1436 28.8006 36.1436 29.3211V35.9174H38.0283V28.3787H37.086ZM30.4897 28.3787V30.2634H31.432C31.9525 30.2634 32.3744 29.8415 32.3744 29.3211C32.3744 28.8006 31.9525 28.3787 31.432 28.3787H30.4897ZM29.5474 28.3787C29.027 28.3787 28.6051 28.8006 28.6051 29.3211V34.0327H29.5474C30.0678 34.0327 30.4897 33.6108 30.4897 33.0904V28.3787H29.5474ZM24.8358 29.3211V32.148H26.7205V29.3211C26.7205 28.8006 26.2986 28.3787 25.7781 28.3787C25.2577 28.3787 24.8358 28.8006 24.8358 29.3211ZM21.0665 29.3211C21.0665 29.8415 21.4884 30.2634 22.0088 30.2634C22.5293 30.2634 22.9511 29.8415 22.9511 29.3211C22.9511 28.8006 22.5293 28.3787 22.0088 28.3787C21.4884 28.3787 21.0665 28.8006 21.0665 29.3211ZM11.6433 28.3787V30.2634H12.5856C13.1061 30.2634 13.528 29.8415 13.528 29.3211C13.528 28.8006 13.1061 28.3787 12.5856 28.3787H11.6433ZM10.701 28.3787C10.1806 28.3787 9.75869 28.8006 9.75869 29.3211C9.75869 29.8415 10.1806 30.2634 10.701 30.2634H11.6433V28.3787H10.701ZM39.9129 30.2634V32.148H40.8553C41.3757 32.148 41.7976 31.7262 41.7976 31.2057C41.7976 30.6853 41.3757 30.2634 40.8553 30.2634H39.9129ZM34.259 30.2634V32.148H36.1436V30.2634H34.259ZM33.3167 30.2634C32.7963 30.2634 32.3744 30.6853 32.3744 31.2057V33.0904C32.3744 33.6108 32.7963 34.0327 33.3167 34.0327C33.8371 34.0327 34.259 33.6108 34.259 33.0904V30.2634H33.3167ZM26.7205 30.2634V40.6289C26.7205 41.1493 27.1424 41.5712 27.6627 41.5712C28.1832 41.5712 28.6051 41.1493 28.6051 40.6289V30.2634H26.7205ZM23.8935 30.2634C23.373 30.2634 22.9511 30.6853 22.9511 31.2057V35.9174H24.8358V30.2634H23.8935ZM15.4126 30.2634V32.148H16.3549C16.8753 32.148 17.2972 31.7262 17.2972 31.2057C17.2972 30.6853 16.8753 30.2634 16.3549 30.2634H15.4126ZM14.4702 30.2634C13.9499 30.2634 13.528 30.6853 13.528 31.2057V35.9174H15.4126V30.2634H14.4702ZM4.10471 31.2057C4.10471 31.7262 4.52661 32.148 5.04707 32.148C5.56753 32.148 5.98934 31.7262 5.98934 31.2057C5.98934 30.6853 5.56753 30.2634 5.04707 30.2634C4.52661 30.2634 4.10471 30.6853 4.10471 31.2057ZM22.0088 32.148C21.4884 32.148 21.0665 32.5699 21.0665 33.0904V39.6866H22.0088C22.5293 39.6866 22.9511 39.2647 22.9511 38.7443V32.148H22.0088ZM17.2972 33.0904C17.2972 33.6108 17.7191 34.0327 18.2396 34.0327C18.76 34.0327 19.1819 33.6108 19.1819 33.0904C19.1819 32.5699 18.76 32.148 18.2396 32.148C17.7191 32.148 17.2972 32.5699 17.2972 33.0904ZM7.87406 33.0904C7.87406 33.6108 8.29587 34.0327 8.81633 34.0327C9.33679 34.0327 9.75869 33.6108 9.75869 33.0904C9.75869 32.5699 9.33679 32.148 8.81633 32.148C8.29587 32.148 7.87406 32.5699 7.87406 33.0904ZM47.4515 34.0327V35.9174H49.3362V34.0327H47.4515ZM45.5669 34.0327V35.9174H47.4515V34.0327H45.5669ZM43.6823 34.0327V37.802H44.6245C45.145 37.802 45.5669 37.3801 45.5669 36.8596V34.0327H43.6823ZM41.7976 34.0327V45.3405H43.6823V34.0327H41.7976ZM39.9129 34.0327V35.9174H41.7976V34.0327H39.9129ZM35.2014 34.0327C34.6809 34.0327 34.259 34.4545 34.259 34.975V44.3982C34.259 44.9186 34.6809 45.3405 35.2014 45.3405H36.1436V34.0327H35.2014ZM24.8358 34.0327V38.7443C24.8358 39.2647 25.2577 39.6866 25.7781 39.6866H26.7205V34.0327H24.8358ZM20.1242 34.0327C19.6038 34.0327 19.1819 34.4545 19.1819 34.975C19.1819 35.4954 19.6038 35.9174 20.1242 35.9174H21.0665V34.0327H20.1242ZM15.4126 34.0327V35.9174H16.3549C16.8753 35.9174 17.2972 35.4954 17.2972 34.975C17.2972 34.4545 16.8753 34.0327 16.3549 34.0327H15.4126ZM11.6433 34.0327V35.9174H13.528V34.0327H11.6433ZM10.701 34.0327C10.1806 34.0327 9.75869 34.4545 9.75869 34.975C9.75869 35.4954 10.1806 35.9174 10.701 35.9174H11.6433V34.0327H10.701ZM30.4897 36.8596V40.6289C30.4897 41.1493 30.9116 41.5712 31.432 41.5712C31.9525 41.5712 32.3744 41.1493 32.3744 40.6289V36.8596C32.3744 36.3392 31.9525 35.9174 31.432 35.9174C30.9116 35.9174 30.4897 36.3392 30.4897 36.8596ZM47.4515 38.7443C47.4515 39.2647 47.8734 39.6866 48.3938 39.6866C48.9143 39.6866 49.3362 39.2647 49.3362 38.7443C49.3362 38.2239 48.9143 37.802 48.3938 37.802C47.8734 37.802 47.4515 38.2239 47.4515 38.7443ZM38.0283 38.7443C38.0283 39.2647 38.4502 39.6866 38.9706 39.6866C39.4911 39.6866 39.9129 39.2647 39.9129 38.7443C39.9129 38.2239 39.4911 37.802 38.9706 37.802C38.4502 37.802 38.0283 38.2239 38.0283 38.7443ZM32.3744 37.802V39.6866H34.259V37.802H32.3744ZM28.6051 37.802V39.6866H30.4897V37.802H28.6051ZM20.1242 37.802C19.6038 37.802 19.1819 38.2239 19.1819 38.7443C19.1819 39.2647 19.6038 39.6866 20.1242 39.6866H21.0665V37.802H20.1242ZM49.3362 40.6289C49.3362 41.1493 49.7581 41.5712 50.2785 41.5712C50.7989 41.5712 51.2208 41.1493 51.2208 40.6289C51.2208 40.1085 50.7989 39.6866 50.2785 39.6866C49.7581 39.6866 49.3362 40.1085 49.3362 40.6289ZM43.6823 39.6866V49.1098H44.6245C45.145 49.1098 45.5669 48.688 45.5669 48.1675V40.6289C45.5669 40.1085 45.145 39.6866 44.6245 39.6866H43.6823ZM47.4515 41.5712V44.3982C47.4515 44.9186 47.8734 45.3405 48.3938 45.3405C48.9143 45.3405 49.3362 44.9186 49.3362 44.3982V42.5136C49.3362 41.9931 48.9143 41.5712 48.3938 41.5712H47.4515ZM45.5669 41.5712V43.4559H47.4515V41.5712H45.5669ZM39.9129 41.5712V45.3405H41.7976V41.5712H39.9129ZM38.0283 41.5712V45.3405H39.9129V41.5712H38.0283ZM36.1436 41.5712V45.3405H38.0283V41.5712H36.1436ZM33.3167 41.5712C32.7963 41.5712 32.3744 41.9931 32.3744 42.5136C32.3744 43.034 32.7963 43.4559 33.3167 43.4559H34.259V41.5712H33.3167ZM22.9511 42.5136C22.9511 43.034 23.373 43.4559 23.8935 43.4559C24.4139 43.4559 24.8358 43.034 24.8358 42.5136C24.8358 41.9931 24.4139 41.5712 23.8935 41.5712C23.373 41.5712 22.9511 41.9931 22.9511 42.5136ZM19.1819 42.5136V50.0521C19.1819 50.5726 19.6038 50.9945 20.1242 50.9945H21.0665V42.5136C21.0665 41.9931 20.6446 41.5712 20.1242 41.5712C19.6038 41.5712 19.1819 41.9931 19.1819 42.5136ZM28.6051 43.4559V45.3405H29.5474C30.0678 45.3405 30.4897 44.9186 30.4897 44.3982C30.4897 43.8778 30.0678 43.4559 29.5474 43.4559H28.6051ZM27.6627 43.4559C27.1424 43.4559 26.7205 43.8778 26.7205 44.3982C26.7205 44.9186 27.1424 45.3405 27.6627 45.3405H28.6051V43.4559H27.6627ZM30.4897 46.2829V50.9945H31.432C31.9525 50.9945 32.3744 50.5726 32.3744 50.0521V46.2829C32.3744 45.7624 31.9525 45.3405 31.432 45.3405C30.9116 45.3405 30.4897 45.7624 30.4897 46.2829ZM22.9511 46.2829V50.9945H23.8935C24.4139 50.9945 24.8358 50.5726 24.8358 50.0521V46.2829C24.8358 45.7624 24.4139 45.3405 23.8935 45.3405C23.373 45.3405 22.9511 45.7624 22.9511 46.2829ZM49.3362 47.2251V50.0521C49.3362 50.5726 49.7581 50.9945 50.2785 50.9945C50.7989 50.9945 51.2208 50.5726 51.2208 50.0521V48.1675C51.2208 47.647 50.7989 47.2251 50.2785 47.2251H49.3362ZM48.3938 47.2251C47.8734 47.2251 47.4515 47.647 47.4515 48.1675C47.4515 48.688 47.8734 49.1098 48.3938 49.1098H49.3362V47.2251H48.3938ZM41.7976 47.2251V49.1098H43.6823V47.2251H41.7976ZM39.9129 47.2251V50.9945H40.8553C41.3757 50.9945 41.7976 50.5726 41.7976 50.0521V47.2251H39.9129ZM38.0283 47.2251V50.9945H39.9129V47.2251H38.0283ZM37.086 47.2251C36.5655 47.2251 36.1436 47.647 36.1436 48.1675V50.0521C36.1436 50.5726 36.5655 50.9945 37.086 50.9945H38.0283V47.2251H37.086ZM32.3744 47.2251V49.1098H33.3167C33.8371 49.1098 34.259 48.688 34.259 48.1675C34.259 47.647 33.8371 47.2251 33.3167 47.2251H32.3744ZM26.7205 47.2251V50.0521C26.7205 50.5726 27.1424 50.9945 27.6627 50.9945H28.6051V48.1675C28.6051 47.647 28.1832 47.2251 27.6627 47.2251H26.7205ZM24.8358 47.2251V49.1098H26.7205V47.2251H24.8358ZM45.5669 50.0521C45.5669 50.5726 45.9888 50.9945 46.5092 50.9945C47.0296 50.9945 47.4515 50.5726 47.4515 50.0521C47.4515 49.5317 47.0296 49.1098 46.5092 49.1098C45.9888 49.1098 45.5669 49.5317 45.5669 50.0521ZM28.6051 49.1098V50.9945H30.4897V49.1098H28.6051ZM21.0665 49.1098V50.9945H22.9511V49.1098H21.0665Z" fill="white"/>
</mask>
<g mask="url(#mask0_1_4660)">
<path d="M52.5103 2.68811H2.91443V52.284H52.5103V2.68811Z" fill="black"/>
</g>
<mask id="mask1_1_4660" style="mask-type:luminance" maskUnits="userSpaceOnUse" x="4" y="3" width="14" height="15">
<path d="M4.10474 8.58999V12.3593C4.10474 14.9614 6.2142 17.0709 8.81634 17.0709H12.5856C15.1878 17.0709 17.2972 14.9614 17.2972 12.3593V8.58999C17.2972 5.98785 15.1878 3.87839 12.5856 3.87839H8.81634C6.2142 3.87839 4.10474 5.98785 4.10474 8.58999ZM8.81634 5.76303H12.5856C14.1469 5.76303 15.4126 7.02871 15.4126 8.58999V12.3593C15.4126 13.9206 14.1469 15.1862 12.5856 15.1862H8.81634C7.25505 15.1862 5.98938 13.9206 5.98938 12.3593V8.58999C5.98938 7.02871 7.25505 5.76303 8.81634 5.76303Z" fill="white"/>
</mask>
<g mask="url(#mask1_1_4660)">
<path d="M17.2972 3.87839H4.10474V17.0709H17.2972V3.87839Z" fill="black"/>
</g>
<mask id="mask2_1_4660" style="mask-type:luminance" maskUnits="userSpaceOnUse" x="7" y="7" width="7" height="7">
<path d="M10.701 13.3016C12.2623 13.3016 13.528 12.0359 13.528 10.4746C13.528 8.91335 12.2623 7.64767 10.701 7.64767C9.1397 7.64767 7.87402 8.91335 7.87402 10.4746C7.87402 12.0359 9.1397 13.3016 10.701 13.3016Z" fill="white"/>
</mask>
<g mask="url(#mask2_1_4660)">
<path d="M13.528 7.64767H7.87402V13.3016H13.528V7.64767Z" fill="black"/>
</g>
<mask id="mask3_1_4660" style="mask-type:luminance" maskUnits="userSpaceOnUse" x="38" y="3" width="14" height="15">
<path d="M46.5092 3.87839H42.7399C40.1378 3.87839 38.0283 5.98785 38.0283 8.58999V12.3593C38.0283 14.9614 40.1378 17.0709 42.7399 17.0709H46.5092C49.1114 17.0709 51.2208 14.9614 51.2208 12.3593V8.58999C51.2208 5.98785 49.1114 3.87839 46.5092 3.87839ZM49.3362 8.58999V12.3593C49.3362 13.9206 48.0705 15.1862 46.5092 15.1862H42.7399C41.1786 15.1862 39.913 13.9206 39.913 12.3593V8.58999C39.913 7.02871 41.1786 5.76303 42.7399 5.76303H46.5092C48.0705 5.76303 49.3362 7.02871 49.3362 8.58999Z" fill="white"/>
</mask>
<g mask="url(#mask3_1_4660)">
<path d="M51.2208 3.87839H38.0283V17.0709H51.2208V3.87839Z" fill="black"/>
</g>
<mask id="mask4_1_4660" style="mask-type:luminance" maskUnits="userSpaceOnUse" x="41" y="7" width="7" height="7">
<path d="M44.6246 13.3016C46.1859 13.3016 47.4515 12.0359 47.4515 10.4746C47.4515 8.91335 46.1859 7.64767 44.6246 7.64767C43.0633 7.64767 41.7976 8.91335 41.7976 10.4746C41.7976 12.0359 43.0633 13.3016 44.6246 13.3016Z" fill="white"/>
</mask>
<g mask="url(#mask4_1_4660)">
<path d="M47.4515 7.64767H41.7976V13.3016H47.4515V7.64767Z" fill="black"/>
</g>
<mask id="mask5_1_4660" style="mask-type:luminance" maskUnits="userSpaceOnUse" x="4" y="37" width="14" height="14">
<path d="M8.81634 50.9945H12.5856C15.1878 50.9945 17.2972 48.885 17.2972 46.2829V42.5136C17.2972 39.9114 15.1878 37.802 12.5856 37.802H8.81634C6.2142 37.802 4.10474 39.9114 4.10474 42.5136V46.2829C4.10474 48.885 6.2142 50.9945 8.81634 50.9945ZM5.98938 46.2829V42.5136C5.98938 40.9523 7.25505 39.6866 8.81634 39.6866H12.5856C14.1469 39.6866 15.4126 40.9523 15.4126 42.5136V46.2829C15.4126 47.8442 14.1469 49.1098 12.5856 49.1098H8.81634C7.25505 49.1098 5.98938 47.8442 5.98938 46.2829Z" fill="white"/>
</mask>
<g mask="url(#mask5_1_4660)">
<path d="M17.2972 37.802H4.10474V50.9945H17.2972V37.802Z" fill="black"/>
</g>
<mask id="mask6_1_4660" style="mask-type:luminance" maskUnits="userSpaceOnUse" x="7" y="41" width="7" height="7">
<path d="M10.701 47.2252C12.2623 47.2252 13.528 45.9595 13.528 44.3982C13.528 42.8369 12.2623 41.5713 10.701 41.5713C9.1397 41.5713 7.87402 42.8369 7.87402 44.3982C7.87402 45.9595 9.1397 47.2252 10.701 47.2252Z" fill="white"/>
</mask>
<g mask="url(#mask6_1_4660)">
<path d="M13.528 41.5713H7.87402V47.2252H13.528V41.5713Z" fill="black"/>
</g>
</svg>
