<svg width="60" height="40" viewBox="0 0 60 40" fill="none" xmlns="http://www.w3.org/2000/svg">
<path d="M27.706 0H25.2352H20.2942H17.8234H0V16.1664V18.4998V23.1666V25.4998V40H17.8234H20.2942H25.2352H27.706H60V25.4998V23.1666V18.4998V16.1664V0H27.706Z" fill="#17297A"/>
<mask id="mask0_1_4123" style="mask-type:luminance" maskUnits="userSpaceOnUse" x="0" y="0" width="60" height="40">
<path d="M27.706 0H25.2352H20.2942H17.8234H0V16.1664V18.4998V23.1666V25.4998V40H17.8234H20.2942H25.2352H27.706H60V25.4998V23.1666V18.4998V16.1664V0H27.706Z" fill="white"/>
</mask>
<g mask="url(#mask0_1_4123)">
<path d="M63.1591 -4.68768L69.544 -0.702729L-3.88443 45.1328L-10.2695 41.1467L63.1591 -4.68768Z" fill="white"/>
<path d="M28.5696 20.2225L65.8152 -3.02632L64.2195 -4.02356L26.9727 19.2261L28.5696 20.2225Z" fill="#B01B2E"/>
<path d="M-6.54688 43.4722L-4.95052 44.4691L31.2311 21.8832L29.6351 20.8871L-6.54688 43.4722Z" fill="#B01B2E"/>
<path d="M69.544 41.1467L63.1591 45.1328L-10.2695 -0.702729L-3.88443 -4.68768L69.544 41.1467Z" fill="white"/>
<path d="M29.6367 19.558L66.8826 42.8073L68.479 41.8115L31.2327 18.5621L29.6367 19.558Z" fill="#B01B2E"/>
<path d="M-7.61111 -2.36212L-9.20703 -1.36659L26.9743 21.2193L28.5712 20.2226L-7.61111 -2.36212Z" fill="#B01B2E"/>
</g>
<path d="M34.8808 0H25.1133V40H34.8808V0Z" fill="white"/>
<path d="M60 15.3334H0V24.6667H60V15.3334Z" fill="white"/>
<path d="M32.7885 0H27.207V40H32.7885V0Z" fill="#B01B2E"/>
<path d="M60 17.3332H0V22.6661H60V17.3332Z" fill="#B01B2E"/>
</svg>
